<?xml version="1.0" encoding="UTF-8" standalone="no"?>
<!-- Created with Inkscape (http://www.inkscape.org/) -->

<svg
   width="210mm"
   height="297mm"
   viewBox="0 0 210 297"
   version="1.1"
   id="svg5"
   inkscape:version="1.1.2 (b8e25be833, 2022-02-05)"
   sodipodi:docname="a1.svg"
   xmlns:inkscape="http://www.inkscape.org/namespaces/inkscape"
   xmlns:sodipodi="http://sodipodi.sourceforge.net/DTD/sodipodi-0.dtd"
   xmlns="http://www.w3.org/2000/svg"
   xmlns:svg="http://www.w3.org/2000/svg">
  <sodipodi:namedview
     id="namedview7"
     pagecolor="#ffffff"
     bordercolor="#666666"
     borderopacity="1.0"
     inkscape:pageshadow="2"
     inkscape:pageopacity="0.0"
     inkscape:pagecheckerboard="0"
     inkscape:document-units="mm"
     showgrid="false"
     inkscape:zoom="0.77771465"
     inkscape:cx="55.290202"
     inkscape:cy="560.61693"
     inkscape:window-width="3840"
     inkscape:window-height="2054"
     inkscape:window-x="-11"
     inkscape:window-y="-11"
     inkscape:window-maximized="1"
     inkscape:current-layer="layer1" />
  <defs
     id="defs2">
    <rect
       x="428.17761"
       y="97.722218"
       width="311.16811"
       height="91.293124"
       id="rect8731" />
    <rect
       x="429.46343"
       y="122.15277"
       width="335.59867"
       height="92.578943"
       id="rect5161" />
  </defs>
  <g
     inkscape:label="圖層 1"
     inkscape:groupmode="layer"
     id="layer1">
    <path
       style="fill:#000000;stroke-width:0.539775"
       d="m 48.908769,169.91269 c -0.547354,-0.31817 -1.323019,-1.36313 -1.723713,-2.32213 -0.663634,-1.58829 -0.490071,-2.84328 1.948107,-14.08645 1.472148,-6.78856 3.049957,-12.91257 3.506219,-13.60891 0.456262,-0.69634 1.439912,-1.49813 2.185906,-1.78176 0.833844,-0.31703 25.51532,-0.5149 64.069982,-0.51366 60.9728,0.002 62.761,0.0309 64.41971,1.0423 2.07209,1.26348 1.93072,0.83919 5.04756,15.14891 2.69474,12.37188 2.74208,13.92593 0.48096,15.78841 -1.07915,0.88889 -5.21022,0.94362 -70.04316,0.92817 -47.997444,-0.011 -69.198266,-0.19187 -69.891571,-0.59488 z m 9.90145,-4.71897 c 0,-0.55663 0.15182,-1.77113 0.33737,-2.69886 l 0.337355,-1.68681 h -2.723458 c -2.640343,0 -2.734235,0.0535 -3.07653,1.75427 -0.194188,0.96485 -0.472749,2.17934 -0.619031,2.69888 -0.23042,0.81837 0.135615,0.9446 2.739175,0.9446 2.578497,0 3.005119,-0.14363 3.005119,-1.01208 z m 8.87927,-0.20241 c 0.808327,-3.72667 0.73119,-3.9016 -1.800582,-4.08293 -2.815085,-0.20163 -3.07697,0.0192 -3.562038,3.00337 l -0.372895,2.29405 h 2.736044 c 2.399461,0 2.768438,-0.14946 2.999471,-1.21449 z m 9.135712,-0.47231 c 0.701549,-3.50774 0.575925,-3.71095 -2.294051,-3.71095 -2.515347,0 -2.646274,0.0744 -2.968746,1.68681 -0.701565,3.50774 -0.57594,3.71094 2.294036,3.71094 2.515347,0 2.646274,-0.0744 2.968761,-1.6868 z m 45.138629,0.67472 c 0,-0.55663 -0.15181,-1.77113 -0.33735,-2.69886 l -0.33737,-1.68681 h -20.19099 c -15.682609,0 -20.237234,0.15072 -20.397958,0.67473 -0.113747,0.37108 -0.333799,1.58558 -0.488892,2.69887 l -0.281975,2.02415 h 21.017265 c 20.19037,0 21.01727,-0.0398 21.01727,-1.01208 z m 8.6364,-1.68678 v -2.69889 h -2.69887 -2.69887 v 2.69889 2.69886 h 2.69887 2.69887 z m 9.17616,0.85381 c 0,-3.06807 -0.4085,-3.5527 -2.99464,-3.5527 -2.78594,0 -3.14593,0.43938 -2.66964,3.25846 l 0.36142,2.13929 h 2.65144 2.65142 z m 8.97661,0.63056 c -0.17901,-0.66798 -0.3288,-1.88247 -0.33284,-2.69887 -0.006,-1.42042 -0.12366,-1.48439 -2.70625,-1.48439 h -2.69887 v 2.69889 2.69886 h 3.03171 c 2.88059,0 3.01549,-0.0606 2.70625,-1.21449 z m 8.83595,-0.63056 c 0,-3.1565 -0.37514,-3.5527 -3.36387,-3.5527 h -2.70859 l 0.33736,1.68681 c 0.18555,0.92773 0.33735,2.14223 0.33735,2.69886 0,0.85465 0.41983,1.01208 2.69887,1.01208 h 2.69888 z m 9.17022,1.17033 c -0.003,-0.37109 -0.15654,-1.58558 -0.3405,-2.69887 -0.33325,-2.01607 -0.34507,-2.02416 -2.96283,-2.02416 -2.5091,0 -2.62792,0.0673 -2.62087,1.48439 0.0168,3.40047 0.44862,3.91336 3.29422,3.91336 1.75207,0 2.63393,-0.22625 2.62998,-0.67472 z m 8.95637,-0.53977 c -0.91136,-4.49384 -0.64215,-4.18326 -3.62592,-4.18326 -2.59003,0 -2.73245,0.0713 -2.42607,1.2145 0.17901,0.66797 0.32878,1.88247 0.33284,2.69887 0.008,1.43914 0.0982,1.48438 2.98641,1.48438 2.80252,0 2.96445,-0.0719 2.73274,-1.21449 z m 8.71293,-1.48437 -0.53363,-2.69889 h -2.62735 c -2.86546,0 -2.99137,0.20402 -2.28998,3.71095 0.32625,1.63125 0.43035,1.6868 3.16098,1.6868 h 2.82361 z M 60.629114,154.73559 c 0.179006,-0.66797 0.328796,-1.76101 0.33284,-2.42897 0.0063,-1.07827 -0.261508,-1.2145 -2.389754,-1.2145 -2.687918,0 -2.717417,0.026 -3.22407,2.83381 l -0.365248,2.02416 h 2.660386 c 2.302626,0 2.704138,-0.16332 2.985846,-1.2145 z m 8.636391,0 c 0.179005,-0.66797 0.328796,-1.76101 0.332839,-2.42897 0.0063,-1.08189 -0.259699,-1.2145 -2.438556,-1.2145 -2.559304,0 -2.638707,0.0779 -3.161502,3.1037 l -0.303104,1.75427 h 2.622423 c 2.263263,0 2.667009,-0.16633 2.9479,-1.2145 z m 8.874204,-1.38033 0.16749,-2.32495 -2.596481,0.16585 -2.596464,0.16585 -0.309492,2.31893 -0.309476,2.31896 2.738467,-0.15986 2.738467,-0.15985 z m 8.738794,0.13624 v -2.45855 l -2.563929,0.16452 -2.56393,0.16451 -0.165979,2.29404 -0.165979,2.29404 h 2.729908 2.729909 z m 8.63639,0.0296 v -2.42899 h -2.698884 -2.698868 v 2.42899 2.42899 h 2.698868 2.698884 z m 8.636387,0 v -2.42899 h -2.69888 -2.698868 v 2.42899 2.42899 h 2.698868 2.69888 z m 8.63639,0 v -2.42896 h -2.69888 -2.69887 v 2.42899 2.42899 h 2.69887 2.69888 z m 8.63639,0 v -2.42899 h -2.69886 -2.69889 v 2.42899 2.42899 h 2.69889 2.69886 z m 17.80977,0.40483 c -0.002,-1.11329 -0.15962,-4.39242 -0.35131,-7.28695 l -0.34851,-5.2628 h -2.65798 -2.65797 l 0.38003,4.85797 0.38002,4.85796 h -4.6577 c -5.03307,0 -4.96463,-0.0502 -4.32034,3.17118 l 0.33736,1.6868 h 6.94959 6.9496 l -0.003,-2.02416 z m 8.63181,0.80967 c -0.019,-3.12804 -0.49318,-3.64349 -3.35199,-3.64349 -2.2345,0 -2.63781,0.14553 -2.36603,0.85381 0.1802,0.4696 0.32765,1.56264 0.32765,2.42899 0,1.53036 0.0768,1.57518 2.69887,1.57518 2.44117,0 2.69817,-0.11595 2.6915,-1.21449 z m 8.63639,0 c -0.019,-3.12804 -0.49318,-3.64349 -3.35199,-3.64349 -2.2345,0 -2.63781,0.14553 -2.36603,0.85381 0.18021,0.4696 0.32765,1.56264 0.32765,2.42899 0,1.53036 0.0768,1.57518 2.69887,1.57518 2.44117,0 2.69818,-0.11595 2.6915,-1.21449 z m 8.64376,-0.36069 c 0,-2.86298 -0.42895,-3.2828 -3.35415,-3.2828 -2.23925,0 -2.64308,0.14537 -2.37124,0.85381 0.18021,0.46959 0.32765,1.56264 0.32765,2.42899 0,1.53036 0.0768,1.57517 2.69887,1.57517 2.62209,0 2.69887,-0.0448 2.69887,-1.57517 z m 8.88825,0.63056 c -0.8199,-4.14512 -0.61337,-3.91336 -3.48729,-3.91336 h -2.6751 l 0.30311,1.75427 c 0.52731,3.05194 0.58369,3.1037 3.38086,3.1037 2.24968,0 2.63614,-0.14726 2.47842,-0.94461 z m 8.61454,-0.53977 c -0.76568,-3.4405 -0.69595,-3.37359 -3.51532,-3.37359 -2.63598,0 -2.66823,0.0205 -2.34244,1.48437 0.76567,3.44051 0.69595,3.3736 3.51531,3.3736 2.636,0 2.66824,-0.0205 2.34245,-1.48438 z M 62.791059,144.54736 c 0.605565,-3.0278 0.511468,-3.17118 -2.081346,-3.17118 -2.19865,0 -2.448751,0.13505 -2.74904,1.48438 -0.18168,0.81641 -0.445579,1.90946 -0.586433,2.42899 -0.218715,0.80675 0.133255,0.9446 2.411685,0.9446 2.556094,0 2.681908,-0.0706 3.005134,-1.68679 z m 8.134331,1.01208 c 0.113433,-0.3711 0.342625,-1.46414 0.509328,-2.42899 l 0.303105,-1.75427 h -2.68537 c -1.918656,0 -2.685385,0.21191 -2.685385,0.74219 0,0.40821 -0.15182,1.50125 -0.337354,2.42899 l -0.337371,1.68679 h 2.513397 c 1.540884,0 2.593207,-0.26107 2.71965,-0.67471 z m 8.608402,-0.1791 c 0.180202,-0.46959 0.327632,-1.56263 0.327632,-2.42898 0,-1.50134 -0.111072,-1.57518 -2.371236,-1.57518 -2.570301,0 -3.0265,0.49484 -3.0265,3.2828 0,1.50134 0.111072,1.57517 2.371236,1.57517 1.664307,0 2.468905,-0.25453 2.698868,-0.85381 z m 8.431615,-0.36068 c 0.0047,-0.66797 0.153865,-1.76101 0.332855,-2.42898 0.306487,-1.14365 0.164343,-1.2145 -2.436354,-1.2145 -2.691646,0 -2.76183,0.04 -2.76183,1.57518 0,0.86635 -0.147414,1.95939 -0.327647,2.42898 -0.272395,0.70988 0.137031,0.85381 2.42899,0.85381 2.496689,0 2.757315,-0.11451 2.763986,-1.21449 z m 8.629027,-1.21449 v -2.42899 h -2.366029 c -2.498025,0 -3.005937,0.6119 -3.024344,3.64348 -0.0063,1.09852 0.250337,1.21449 2.691505,1.21449 h 2.698868 z m 8.296176,1.21449 c 0.17902,-0.66797 0.32879,-1.76101 0.33285,-2.42898 0.006,-1.09852 -0.25034,-1.2145 -2.6915,-1.2145 h -2.698872 v 2.42899 2.42898 h 2.366032 c 1.99736,0 2.41673,-0.18923 2.69149,-1.21449 z m 8.43683,-1.21449 v -2.42899 h -2.42899 c -2.15691,0 -2.4298,0.13604 -2.43635,1.2145 -0.005,0.66797 -0.15386,1.76101 -0.33284,2.42898 -0.30649,1.14364 -0.16434,1.21449 2.43635,1.21449 h 2.76183 z m 8.63639,0 v -2.42899 h -2.69886 -2.69889 v 2.42899 2.42898 h 2.69889 2.69886 z m 8.09663,0 v -2.42899 h -2.429 -2.42897 v 2.42899 2.42898 h 2.42897 2.429 z m 17.27278,1.68679 c 0,-0.4082 -0.15182,-1.50124 -0.33736,-2.42898 -0.31616,-1.58077 -0.48581,-1.6868 -2.69888,-1.6868 h -2.36152 v 2.42899 2.42898 h 2.69889 c 1.93009,0 2.69887,-0.21141 2.69887,-0.74219 z m 8.42425,-0.11162 c -0.1802,-0.46959 -0.32763,-1.56263 -0.32763,-2.42898 0,-1.53549 -0.0697,-1.57518 -2.76635,-1.57518 h -2.76634 l 0.33735,1.6868 c 0.18555,0.92773 0.33736,2.02078 0.33736,2.42898 0,0.53285 0.77752,0.74219 2.75662,0.74219 2.29193,0 2.7014,-0.14394 2.42899,-0.85381 z m 8.30138,-0.36068 c -0.0184,-3.03158 -0.52632,-3.64348 -3.02435,-3.64348 h -2.36603 v 2.06913 c 0,1.13803 0.16194,2.23108 0.35986,2.42899 0.19791,0.19792 1.41241,0.35985 2.69887,0.35985 2.06799,0 2.33816,-0.14073 2.33165,-1.21449 z m 8.44135,-0.4723 c -0.18555,-0.92774 -0.33737,-2.02078 -0.33737,-2.42899 0,-0.53303 -0.77829,-0.74219 -2.76181,-0.74219 -2.60072,0 -2.74284,0.0708 -2.43637,1.21449 0.17902,0.66797 0.32879,1.76102 0.33285,2.42899 0.006,1.10053 0.26695,1.21449 2.77371,1.21449 h 2.76635 z m 8.52903,0.20241 c -0.75783,-3.40525 -0.72746,-3.37359 -3.23513,-3.37359 -2.56445,0 -2.66001,0.14745 -2.05526,3.17118 0.32271,1.61348 0.45217,1.68679 2.97905,1.68679 2.60206,0 2.63672,-0.0222 2.31134,-1.48438 z M 92.438348,126.44613 c -0.243415,-0.6343 0.468706,-1.61938 2.438776,-3.37359 3.623758,-3.22669 4.416178,-5.2663 4.416178,-11.36662 v -4.8753 h 20.511438 20.51143 v 4.8753 c 0,6.087 0.79529,8.12389 4.43291,11.35352 5.02081,4.45771 6.04074,4.28261 -24.94434,4.28261 -24.678364,0 -27.052432,-0.0777 -27.366392,-0.89592 z M 62.858537,104.16124 c -0.593749,-0.24302 -1.565349,-0.98182 -2.159098,-1.64178 -1.059906,-1.17809 -1.079557,-1.95975 -1.079557,-42.963512 V 17.792367 l 1.49655,-1.496648 1.49655,-1.496647 55.057058,-0.142475 c 61.13034,-0.158194 57.55087,-0.364016 59.12342,3.399637 1.14187,2.73287 1.14187,80.355367 0,83.088236 -1.56162,3.73748 1.89707,3.53078 -58.4463,3.49284 -29.924988,-0.0188 -54.894874,-0.23305 -55.488623,-0.47607 z m 57.856013,-6.061106 c 2.48736,-2.33676 0.8841,-6.383205 -2.52914,-6.383205 -3.36464,0 -4.94202,3.819675 -2.60479,6.307561 1.47324,1.568185 3.51321,1.598235 5.13393,0.07564 z M 171.08331,53.662831 V 21.546253 H 118.18541 65.287527 V 53.662831 85.77941 h 52.897883 52.8979 z"
       id="path21" />
    <text
       xml:space="preserve"
       transform="scale(0.26458333)"
       id="text5159"
       style="fill:black;fill-opacity:1;line-height:1.25;stroke:none;font-family:sans-serif;font-style:normal;font-weight:normal;font-size:40px;white-space:pre;shape-inside:url(#rect5161)" />
    <text
       xml:space="preserve"
       transform="matrix(0.26458333,0,0,0.26458333,-45.927835,45.587629)"
       id="text8729"
       style="font-style:normal;font-weight:normal;font-size:40px;line-height:1.25;font-family:sans-serif;white-space:pre;shape-inside:url(#rect8731);fill:#000000;fill-opacity:1;stroke:none"><tspan
         x="428.17773"
         y="134.21587"
         id="tspan11923">NUTC-TECH</tspan></text>
    <path
       style="fill:#0000ff;stroke-width:0.0623978"
       d="m 167.95424,78.500188 c -0.2156,-0.23264 -0.66521,-1.072601 -0.64111,-1.197732 0.0111,-0.05786 0.076,-0.1052 0.1442,-0.1052 0.14933,0 0.21477,0.329379 0.0821,0.413458 -0.0563,0.03567 -0.0253,0.05292 0.0962,0.05357 0.15159,8.11e-4 0.16736,-0.01335 0.10223,-0.09183 -0.1089,-0.131213 -0.0273,-0.420862 0.11075,-0.393492 0.0781,0.01548 0.10697,0.08396 0.10697,0.253777 0,0.172563 0.026,0.232572 0.10082,0.232543 0.0838,-3.5e-5 0.093,-0.04261 0.0548,-0.252106 -0.0254,-0.138636 -0.0657,-0.271714 -0.0898,-0.29573 -0.024,-0.02402 -0.2258,-0.04505 -0.44842,-0.04675 -0.38062,-0.0029 -0.41418,-0.01514 -0.56291,-0.205182 -0.087,-0.111153 -0.26783,-0.258045 -0.40188,-0.326429 -0.13405,-0.06839 -0.24372,-0.134493 -0.24372,-0.146909 0,-0.01242 0.11026,-0.0241 0.24501,-0.02596 0.13475,-0.0018 0.32882,-0.04672 0.43127,-0.09971 0.20752,-0.10731 0.44688,-0.381995 0.44688,-0.512818 0,-0.158603 0.1225,-0.08633 0.28204,0.166388 0.0873,0.138363 0.25281,0.296392 0.36769,0.351176 0.15124,0.07212 0.22816,0.163965 0.27876,0.332849 0.0943,0.314677 0.088,0.499554 -0.017,0.499554 -0.17371,0 -0.22135,0.372807 -0.0643,0.503148 0.0794,0.06591 0.0901,0.154572 0.0553,0.460024 -0.0704,0.618028 -0.17152,0.718538 -0.43582,0.433356 z m 0.38676,-1.047276 c -0.0185,-0.04814 0.006,-0.139399 0.0537,-0.202793 0.0806,-0.106412 0.0875,-0.09969 0.0893,0.08753 0.002,0.206356 -0.0821,0.274125 -0.14305,0.115261 z m -2.70965,-1.306896 c -0.11154,-0.03659 -0.2028,-0.0888 -0.2028,-0.116022 0,-0.02722 -0.0702,-0.0495 -0.156,-0.0495 -0.0858,0 -0.21351,-0.05752 -0.28381,-0.127819 -0.10456,-0.104561 -0.12443,-0.192554 -0.1092,-0.483583 l 0.0187,-0.355763 0.29639,-0.01901 c 0.28219,-0.01811 0.29639,-0.02782 0.29639,-0.202793 0,-0.178251 -0.009,-0.183774 -0.30357,-0.183774 -0.28917,0 -0.30365,-0.0081 -0.30525,-0.171594 -0.003,-0.317132 -0.0105,-0.327588 -0.23355,-0.327588 -0.21319,0 -0.21839,0.006 -0.21839,0.249592 v 0.24959 h -0.24959 c -0.23573,0 -0.24959,0.0104 -0.24959,0.187193 0,0.176794 0.0138,0.187193 0.24959,0.187193 h 0.24959 v 0.311989 c 0,0.171593 -0.0146,0.311988 -0.0324,0.311988 -0.0773,0 -0.52592,-0.317312 -0.57654,-0.407763 -0.0306,-0.05468 -0.2641,-0.202904 -0.51889,-0.329404 -0.4878,-0.242177 -0.60235,-0.402379 -0.39573,-0.553461 0.13789,-0.100833 0.42589,-0.106286 0.60315,-0.01141 0.1109,0.05935 0.15032,0.04822 0.24549,-0.06931 0.16098,-0.198794 0.14705,-0.227803 -0.16691,-0.347704 -0.50514,-0.192916 -1.00655,-0.03013 -1.22506,0.397734 -0.0919,0.179973 -0.10943,0.188876 -0.18719,0.09517 -0.0472,-0.05686 -0.0766,-0.157624 -0.0654,-0.223933 0.0226,-0.133529 -0.15077,-0.35945 -0.27588,-0.35945 -0.0485,0 -0.0955,-0.116969 -0.11908,-0.296389 -0.0215,-0.163014 -0.0446,-0.338507 -0.0514,-0.389985 -0.01,-0.07435 -0.13411,-0.09714 -0.60442,-0.110819 -0.68448,-0.01991 -1.08794,0.07121 -2.15199,0.486061 -0.69717,0.271803 -1.41164,0.385375 -1.80433,0.286814 -0.39853,-0.100024 -0.82295,-0.71993 -0.7746,-1.131367 0.0183,-0.155651 0.0806,-0.200654 0.55285,-0.399043 1.40581,-0.59063 2.78556,-1.486433 3.50709,-2.276972 0.49054,-0.537455 0.5403,-0.905609 0.20372,-1.507448 -0.24877,-0.444853 -0.27331,-0.689172 -0.0923,-0.919245 0.27587,-0.350707 1.01972,-0.366374 3.64043,-0.07668 1.4742,0.162961 3.14638,0.208466 3.62029,0.09852 l 0.24223,-0.0562 -0.0348,0.383337 c -0.076,0.837881 0.0877,1.595334 0.69714,3.226305 0.33238,0.889514 0.0404,1.386988 -1.18741,2.022845 -0.32087,0.166179 -0.60202,0.319542 -0.62475,0.340806 -0.0227,0.02126 -0.003,0.249255 0.0436,0.506645 0.12737,0.702447 0.14828,0.657794 -0.29843,0.637134 -0.30354,-0.01404 -0.43445,0.0096 -0.58988,0.106437 -0.42605,0.265483 -0.54222,0.889765 -0.23945,1.28672 0.17599,0.230742 0.17272,0.233875 -0.13797,0.131952 z m 0.66028,-0.258406 c -0.33712,-0.188188 -0.26993,-0.754308 0.10119,-0.852643 0.36719,-0.09729 0.65807,0.103082 0.65807,0.453322 0,0.3628 -0.42463,0.586125 -0.75926,0.399321 z m -19.17682,-2.320592 c -0.13727,-0.04962 -0.71297,-0.182434 -1.27934,-0.295142 -0.56635,-0.112707 -1.12078,-0.251998 -1.23204,-0.309533 -0.39018,-0.201773 -1.01204,-1.151852 -1.01348,-1.548414 -0.002,-0.698382 0.92618,-1.360833 1.42146,-1.013924 0.18542,0.129878 0.12952,0.213936 -0.34725,0.522087 -0.62482,0.403839 -0.6623,0.700511 -0.14948,1.183355 0.62198,0.58564 1.16624,0.794709 1.32016,0.507117 0.0517,-0.0966 0.024,-0.23213 -0.12821,-0.626759 -0.10679,-0.276928 -0.17849,-0.544372 -0.15932,-0.59432 0.0444,-0.115861 0.34581,-0.114204 0.50032,0.0027 0.11071,0.08381 0.11326,0.119465 0.0393,0.551637 -0.0935,0.546577 -0.0351,0.799586 0.24674,1.06963 0.17902,0.171524 0.19444,0.174533 0.68464,0.133652 0.27582,-0.023 0.56893,-0.06746 0.65136,-0.0988 0.0824,-0.03134 0.16679,-0.04005 0.18748,-0.01936 0.0833,0.08332 0.03,0.398807 -0.0872,0.515998 -0.14303,0.143032 -0.30148,0.147876 -0.65517,0.02003 z m 2.15273,-0.690007 c -1.00925,-0.107238 -1.12316,-0.127325 -1.12316,-0.19806 0,-0.02997 0.30185,-0.173472 0.67077,-0.318895 0.36893,-0.145423 0.70863,-0.294559 0.75488,-0.331412 0.12291,-0.09794 0.0491,-0.434842 -0.15357,-0.700496 -0.3681,-0.482616 -1.3377,-1.087894 -1.74007,-1.086259 -0.25821,0.001 -0.6504,0.193584 -0.86963,0.426935 -0.21595,0.229836 -0.2871,0.240015 -0.4465,0.06388 -0.0653,-0.07215 -0.19923,-0.172817 -0.29763,-0.223702 -0.0984,-0.05089 -0.15462,-0.113478 -0.12494,-0.139097 0.0297,-0.02562 0.33621,-0.08011 0.68119,-0.121104 0.73989,-0.08791 1.04938,-0.165661 1.18021,-0.296489 0.22304,-0.223044 0.0599,-0.662136 -0.63702,-1.714676 -0.68506,-1.034606 -0.71265,-1.211646 -0.21386,-1.372077 0.22037,-0.07088 0.389,-0.146745 1.80905,-0.813863 1.07442,-0.504747 1.77303,-0.741442 2.31076,-0.782909 0.68871,-0.05311 0.94443,0.06997 1.42317,0.684953 0.41753,0.536369 0.73336,0.769428 1.12157,0.827644 0.32083,0.04811 0.77751,-0.01076 1.08338,-0.139658 0.12012,-0.05061 0.36581,-0.09376 0.54598,-0.09587 0.19803,-0.0023 0.32735,-0.03143 0.32698,-0.07362 -3.1e-4,-0.03838 -0.067,-0.210185 -0.1481,-0.381779 -0.14498,-0.306653 -0.35409,-0.536821 -0.66246,-0.729135 -0.15038,-0.09378 -0.156,-0.120973 -0.156,-0.755098 0,-0.602428 -0.0122,-0.670835 -0.14502,-0.812493 l -0.14502,-0.154682 0.28919,-0.023 c 0.31019,-0.02467 0.41624,0.04176 0.4989,0.312499 0.10154,0.332603 0.0182,0.945154 -0.12861,0.945154 -0.0597,0 -0.0887,-0.0713 -0.0887,-0.218392 0,-0.120116 0.0254,-0.218392 0.0565,-0.218392 0.0311,0 0.0241,-0.06892 -0.0156,-0.153148 -0.0963,-0.20453 -0.14099,-0.0709 -0.1129,0.337764 0.0139,0.202517 0.05,0.314566 0.10139,0.314566 0.0439,0 0.0975,0.07722 0.11908,0.171593 0.0246,0.107123 0.15843,0.261448 0.35635,0.410745 0.34695,0.261712 0.55229,0.621916 0.55455,0.972782 0.001,0.185586 0.0642,0.271427 0.48061,0.655157 0.50525,0.465568 0.83111,0.908031 0.83111,1.128543 0,0.150341 -0.33346,0.500099 -0.42365,0.444357 -0.0326,-0.02019 -0.0765,-0.122422 -0.0975,-0.227172 -0.0863,-0.431537 -0.58121,-0.977331 -1.15548,-1.274299 -0.34171,-0.176704 -0.80155,-0.193184 -1.15203,-0.04129 -0.73653,0.319202 -1.2706,0.111741 -2.22942,-0.866022 -0.91811,-0.936236 -1.10278,-0.963314 -2.11325,-0.309852 -0.65451,0.423269 -0.97565,0.594501 -1.56106,0.832376 -0.50093,0.203544 -0.65504,0.346075 -0.75317,0.696553 -0.10684,0.381607 -0.0504,0.825345 0.15957,1.254913 0.22583,0.461993 1.02732,1.279834 1.36273,1.390527 0.22139,0.07306 0.24723,0.06786 0.40285,-0.0812 0.24662,-0.236221 0.60641,-0.362981 1.13264,-0.399049 0.445,-0.0305 0.50082,-0.01879 1.07429,0.225286 0.73393,0.312378 0.99596,0.329191 1.26347,0.08107 0.156,-0.144701 0.28228,-0.189065 0.70294,-0.246953 0.68022,-0.09361 0.89029,-0.203446 0.89399,-0.467429 l 0.003,-0.20119 0.15139,0.28079 c 0.17886,0.331741 0.48585,1.249846 0.43495,1.300752 -0.0195,0.01949 -0.11153,-0.01403 -0.20451,-0.07451 -0.33979,-0.220979 -0.92212,-0.477371 -1.08434,-0.477419 -0.29721,-6.3e-5 -0.36389,0.0583 -0.36389,0.318615 0,0.162652 -0.0428,0.2857 -0.12949,0.372402 -0.16711,0.16711 -0.41573,0.129747 -1.30689,-0.196399 -1.09201,-0.399651 -1.49224,-0.441855 -1.94922,-0.205539 -0.25633,0.132551 -0.32429,0.360061 -0.20021,0.670174 0.114,0.284902 0.0894,0.510961 -0.10291,0.945701 -0.0701,0.158406 -0.11146,0.329543 -0.092,0.380306 0.0195,0.05076 0.23229,0.179253 0.47291,0.285534 0.24062,0.10628 0.43749,0.217136 0.43749,0.246345 0,0.07178 -0.54619,0.05242 -1.55993,-0.05529 z m -2.01527,-0.50261 c -0.27288,-0.279463 -0.28235,-0.339391 -0.0751,-0.475214 0.10858,-0.07114 0.156,-0.158683 0.156,-0.287966 0,-0.155216 0.025,-0.185755 0.15193,-0.185755 0.35788,0 0.59336,0.210627 0.50191,0.448944 -0.0195,0.05067 -0.13535,0.139826 -0.25758,0.198111 -0.2017,0.09618 -0.21989,0.12595 -0.19698,0.322237 0.0139,0.118945 0.008,0.216264 -0.0119,0.216264 -0.0205,0 -0.14118,-0.106479 -0.26826,-0.236621 z m -12.6568,-0.402955 c -0.0875,-0.170725 -0.14629,-0.423821 -0.16501,-0.710508 -0.0271,-0.414268 -0.0132,-0.478441 0.1994,-0.920366 0.23112,-0.48052 0.37269,-0.617871 0.31278,-0.303455 -0.0579,0.303553 -0.13244,1.292194 -0.10357,1.372749 0.0371,0.103708 0.34208,0.09748 0.76336,-0.0156 0.37613,-0.100958 0.62416,-0.119568 0.62367,-0.0468 -1.9e-4,0.02574 -0.20871,0.168644 -0.46342,0.317567 -0.25472,0.148923 -0.55486,0.338456 -0.66699,0.421185 -0.11213,0.08273 -0.23997,0.150416 -0.28408,0.150416 -0.0441,0 -0.14138,-0.119336 -0.21614,-0.26519 z m 3.37808,-0.513065 c -0.93888,-0.496425 -0.96051,-0.970938 -0.0802,-1.758828 0.62859,-0.562579 0.61942,-0.613977 -0.20061,-1.124678 -0.89266,-0.555931 -0.87835,-0.543145 -1.08711,-0.971213 -0.28468,-0.583728 -0.5054,-1.85639 -0.32197,-1.85639 0.0315,0 0.13359,0.231652 0.22686,0.514782 0.32414,0.983942 0.47305,1.245911 0.89102,1.567531 0.20959,0.161277 0.40297,0.328607 0.42973,0.371844 0.0267,0.04324 0.18446,0.189656 0.35043,0.325374 0.45449,0.371643 0.68046,0.924307 0.46573,1.139047 -0.0582,0.05824 -0.0409,0.07489 0.078,0.07493 0.0841,2.7e-5 0.33089,0.08426 0.54846,0.187194 0.4658,0.220358 0.8265,0.244206 1.00432,0.0664 0.12698,-0.126982 0.25046,-0.489343 0.25654,-0.752824 0.002,-0.105563 0.0495,-0.03269 0.14537,0.22539 0.18382,0.494477 0.43443,0.918644 0.63685,1.077867 0.21205,0.166803 1.07953,0.499113 1.42734,0.546787 0.24024,0.03293 0.29331,0.01767 0.42219,-0.121394 0.18946,-0.20443 0.37484,-0.793425 0.37484,-1.190968 0,-0.353492 -0.0872,-0.452706 -0.44643,-0.508114 -1.01852,-0.157082 -1.43184,-0.277806 -1.7363,-0.507142 -0.13201,-0.09944 -0.20279,-0.206096 -0.20279,-0.305573 0,-0.196844 0.0776,-0.192512 0.42989,0.024 0.4399,0.270363 1.27706,0.57196 1.58761,0.57196 0.5854,0 0.79943,-0.504603 0.4392,-1.035437 -0.19058,-0.28083 -0.23148,-0.316542 -0.77196,-0.673935 -0.73618,-0.486807 -1.20322,-1.15442 -1.37813,-1.969992 l -0.0664,-0.309572 -0.23671,0.241491 c -0.13019,0.132819 -0.32202,0.285605 -0.42629,0.339524 -0.28511,0.147434 -1.02857,0.335972 -1.74513,0.442554 -0.62238,0.09257 -1.08272,0.121121 -0.79599,0.04936 0.41358,-0.103504 1.90261,-0.611246 2.25105,-0.767585 0.5587,-0.250666 0.75541,-0.400748 0.90206,-0.68822 0.0974,-0.190804 0.38233,-0.432815 0.50966,-0.432815 0.0103,0 0.0198,0.203572 0.0212,0.452383 0.003,0.55912 0.19222,1.427895 0.36803,1.690871 0.0876,0.131092 0.33904,0.305209 0.75402,0.522232 1.01994,0.533392 1.26392,0.921534 1.19879,1.907151 -0.0508,0.768676 -0.46326,1.957246 -0.81069,2.3361 -0.0699,0.07622 -0.2194,0.169053 -0.33224,0.206292 -0.2762,0.09115 -0.56571,0.0079 -1.46124,-0.420307 -1.14415,-0.547065 -1.70168,-0.70454 -2.4944,-0.70454 -0.77934,0 -0.90032,0.05359 -0.88755,0.393128 0.008,0.221064 0.22507,0.762198 0.33171,0.828106 0.0304,0.01875 0.0551,0.06051 0.0551,0.0928 0,0.107036 -0.339,0.05512 -0.62397,-0.09556 z m 18.97712,-0.826278 c -0.21374,-0.213732 -0.30576,-0.633592 -0.1998,-0.911515 0.0958,-0.251247 0.27882,-0.201703 0.30589,0.0828 0.0273,0.287794 0.1088,0.374127 0.35291,0.374127 0.21892,0 0.36768,-0.09714 0.91923,-0.600287 0.29491,-0.269036 0.41408,-0.335136 0.68637,-0.380759 l 0.3295,-0.05521 -0.21839,-0.139256 c -0.14908,-0.09506 -0.2679,-0.126762 -0.37438,-0.09989 -0.0858,0.02165 -0.25313,0.0437 -0.37184,0.049 -0.27212,0.01215 -0.39398,-0.181761 -0.35609,-0.566638 0.0368,-0.373361 0.18601,-0.578079 0.42147,-0.578079 0.23687,0 0.33002,0.04959 1.01472,0.540225 0.30376,0.217657 0.57752,0.395741 0.60838,0.395741 0.11333,0 0.0499,-0.177381 -0.20285,-0.567505 -0.44444,-0.68594 -0.67637,-1.188517 -0.67671,-1.46635 -5.6e-4,-0.49693 0.28906,-0.586029 1.90666,-0.586502 1.11046,-3.12e-4 1.19846,-0.0088 1.32596,-0.127575 0.18749,-0.174678 0.1711,-0.390673 -0.0486,-0.640958 l -0.18522,-0.210948 -0.76635,-0.04158 c -1.03598,-0.05621 -1.25189,-0.0938 -1.14613,-0.199562 0.0652,-0.06522 0.16346,-0.06784 0.48422,-0.0129 0.34842,0.05968 0.47721,0.05144 0.96015,-0.06146 0.4504,-0.105287 0.58777,-0.116345 0.71374,-0.05746 0.23228,0.108584 0.43679,0.562952 0.43679,0.970411 0,0.319784 -0.0164,0.356371 -0.2675,0.596971 -0.1955,0.187323 -0.35633,0.276815 -0.59754,0.332492 -0.43545,0.100515 -0.60177,0.09713 -1.3935,-0.02835 -0.54037,-0.08564 -0.69928,-0.09125 -0.83492,-0.02944 -0.15657,0.07133 -0.16494,0.09526 -0.12791,0.365458 0.0246,0.179507 0.17132,0.52489 0.38696,0.910955 0.19104,0.342007 0.34945,0.696366 0.35205,0.787465 0.007,0.239664 -0.1238,0.595893 -0.26549,0.724124 -0.11744,0.106285 -0.12782,0.105957 -0.25388,-0.0081 -0.0723,-0.06538 -0.18478,-0.223383 -0.24998,-0.351124 -0.0652,-0.127741 -0.20551,-0.331313 -0.31181,-0.452383 -0.1694,-0.192939 -0.22929,-0.220127 -0.48492,-0.220127 -0.28025,0 -0.569,0.128455 -0.569,0.253129 0,0.113916 0.36894,0.0595 0.49198,-0.07257 0.0674,-0.07229 0.15024,-0.114256 0.1842,-0.09326 0.034,0.021 0.18695,0.227552 0.33996,0.45902 0.15301,0.231468 0.33796,0.474342 0.41101,0.539718 0.20952,0.187535 0.1604,0.275209 -0.2154,0.384457 -0.33007,0.09596 -0.75684,0.09865 -0.96215,0.0061 -0.0684,-0.03084 -0.14083,0.04832 -0.26904,0.294112 -0.24789,0.475195 -0.41452,0.612481 -0.78682,0.648255 -0.2812,0.02702 -0.32896,0.01211 -0.49588,-0.154814 z m -23.73379,-0.0018 c -0.0533,-0.06027 -0.18326,-0.247075 -0.28887,-0.415127 -0.18974,-0.301957 -0.19269,-0.303707 -0.25155,-0.148905 -0.0717,0.188636 -0.17996,0.236062 -0.53872,0.236062 -0.32283,0 -0.54062,-0.167315 -0.64978,-0.499182 -0.062,-0.188769 -0.0571,-0.226855 0.0366,-0.28079 0.0596,-0.03432 0.177,-0.128122 0.26091,-0.20845 0.14022,-0.134241 0.14954,-0.17833 0.11529,-0.545132 -0.0448,-0.479863 -0.35309,-1.429093 -0.60988,-1.877925 -0.19313,-0.337562 -0.53581,-0.606711 -0.72636,-0.570497 -0.0685,0.01302 -0.14903,0.138038 -0.21403,0.332286 -0.12184,0.364177 -0.13835,0.664794 -0.0528,0.962867 0.0762,0.265865 0.0472,0.297917 -0.15168,0.16758 -0.18737,-0.122767 -0.30822,-0.343995 -0.47333,-0.866454 l -0.12305,-0.389363 0.17177,-0.144412 c 0.0945,-0.07943 0.3118,-0.23386 0.48295,-0.343187 0.36217,-0.231359 0.57677,-0.575406 0.61515,-0.986223 0.0145,-0.155556 0.0718,-0.370551 0.12723,-0.477767 0.12338,-0.2386 0.12349,-0.242732 0.007,-0.242732 -0.057,0 -0.0828,0.03923 -0.0651,0.0988 0.0161,0.05434 -0.009,0.168965 -0.0564,0.254729 l -0.0858,0.155932 -0.0492,-0.187131 c -0.0271,-0.102922 -0.0422,-0.22223 -0.0335,-0.265128 0.009,-0.0429 -0.0172,-0.078 -0.0573,-0.078 -0.0478,0 -0.06,0.06462 -0.0355,0.187193 0.0206,0.102957 0.025,0.187193 0.01,0.187193 -0.0151,0 -0.1139,-0.08447 -0.21951,-0.187709 -0.14681,-0.143504 -0.22814,-0.178648 -0.34535,-0.14923 -0.12651,0.03175 -0.15331,0.01548 -0.15331,-0.09308 0,-0.07236 -0.0228,-0.13156 -0.0507,-0.13156 -0.0279,0 -0.0489,0.133375 -0.0468,0.296389 l 0.004,0.29639 -0.22869,0.01905 c -0.29812,0.02484 -0.34622,-0.113912 -0.20682,-0.596596 0.1382,-0.478523 0.23533,-0.576812 0.56998,-0.576812 0.25893,0 0.27112,-0.0083 0.27112,-0.184999 0,-0.125481 0.0432,-0.208113 0.13425,-0.256849 0.11579,-0.06197 0.12869,-0.05734 0.0938,0.03364 -0.0555,0.144661 0.0669,0.25007 0.44745,0.38522 l 0.32288,0.114678 v 0.521532 c 0,1.133389 0.53796,2.961071 1.45409,4.940176 0.11915,0.257391 0.33235,0.718116 0.47377,1.023834 0.26157,0.565475 0.29031,0.685941 0.11683,0.489694 z M 144.91044,67.9943 c -0.0861,-0.06545 -0.19824,-0.316798 -0.25599,-0.573827 -0.0458,-0.204053 -0.038,-0.310953 0.034,-0.462632 0.10375,-0.218651 0.8728,-0.801284 1.3533,-1.02528 0.31541,-0.14703 1.29218,-1.032455 1.29173,-1.170929 -1.2e-4,-0.04449 -0.089,-0.128731 -0.19738,-0.187193 -0.10841,-0.05846 -0.44253,-0.269247 -0.74247,-0.468411 -0.5115,-0.33964 -0.58737,-0.369605 -1.22243,-0.482753 -0.37239,-0.06635 -0.69598,-0.121009 -0.71909,-0.121465 -0.0231,-4.36e-4 -0.12978,-0.07468 -0.23705,-0.164952 -0.21467,-0.18063 -0.43327,-0.572797 -0.59514,-1.067686 l -0.1052,-0.321653 -0.2233,0.293148 c -0.12281,0.161232 -0.38417,0.480341 -0.5808,0.709131 -0.44673,0.519798 -0.48651,0.633471 -0.30678,0.876565 l 0.13776,0.186337 -0.1469,-0.04547 c -0.28073,-0.0869 -0.59971,-0.274329 -0.63838,-0.375094 -0.09,-0.234468 -0.0299,-0.337802 0.35109,-0.6032 0.4177,-0.291019 0.74292,-0.74342 0.86545,-1.203889 0.13325,-0.500701 0.5208,-0.833623 1.27083,-1.09167 0.55435,-0.190725 0.57428,-0.170077 0.26042,0.269768 -0.43724,0.612727 -0.68206,1.133298 -0.6346,1.349358 0.10211,0.464904 1.2675,1.130243 2.90213,1.656861 1.24768,0.401956 1.20169,0.380127 1.15051,0.546089 -0.0237,0.07694 -0.1519,0.327302 -0.28483,0.556362 -0.13294,0.229059 -0.2417,0.443762 -0.2417,0.477118 0,0.14045 -0.47338,0.455491 -1.25535,0.835457 -0.45923,0.223148 -0.88598,0.463167 -0.9483,0.533374 -0.0777,0.08748 -0.10712,0.202482 -0.0936,0.365463 0.0197,0.237386 0.0207,0.238211 0.58017,0.458504 0.30823,0.12138 0.50479,0.226565 0.43678,0.233745 -0.3217,0.03396 -1.16757,0.04718 -1.20486,0.01883 z m -10.89595,-0.780652 c 0.0325,-0.06864 0.0591,-0.321348 0.0592,-0.56158 4e-5,-0.374934 -0.0299,-0.494216 -0.21117,-0.842369 -0.11617,-0.223072 -0.29091,-0.506953 -0.38832,-0.630847 -0.0974,-0.123895 -0.15912,-0.243231 -0.13716,-0.265191 0.022,-0.02196 0.013,-0.03993 -0.02,-0.03993 -0.0483,0 -0.0648,-0.411375 -0.0288,-0.717573 0.004,-0.03432 0.16227,-0.229361 0.35163,-0.433425 l 0.34431,-0.371028 0.17639,0.104192 c 0.097,0.05731 0.19816,0.08388 0.22478,0.05904 0.0266,-0.02484 0.019,0.01153 -0.0169,0.08079 -0.0609,0.117397 -0.58954,0.597194 -0.70917,0.643623 -0.0295,0.01144 -0.0553,-0.01664 -0.0576,-0.0624 -0.002,-0.04576 -0.0312,-0.01497 -0.0646,0.06842 -0.0723,0.180924 -0.008,0.690753 0.0872,0.690753 0.0368,0 0.12562,0.05517 0.19738,0.122594 0.1247,0.117146 0.44838,0.118129 0.37608,0.0011 -0.0273,-0.04426 0.59405,-0.498123 0.68201,-0.498123 0.12146,0 -0.002,0.204471 -0.22037,0.365094 -0.3168,0.232985 -0.39818,0.346581 -0.48847,0.681883 -0.10069,0.373944 0.001,0.712459 0.27842,0.923806 0.11871,0.09054 0.20198,0.187037 0.18505,0.214428 -0.017,0.02739 -0.17664,0.171683 -0.35493,0.320646 -0.20545,0.171657 -0.30251,0.225141 -0.26505,0.146046 z m 30.28393,-0.611562 c -0.004,-0.07547 -0.0189,-0.235487 -0.0335,-0.355603 -0.0145,-0.120116 -0.0103,-0.30856 0.009,-0.418766 0.0319,-0.178362 0.051,-0.194046 0.17383,-0.142781 0.0759,0.03168 0.36943,0.09919 0.65226,0.150041 0.28283,0.05085 0.76017,0.195022 1.06077,0.320387 0.98118,0.409222 1.05664,0.424047 1.37468,0.270088 0.54622,-0.264423 0.62353,-0.656634 0.26681,-1.353669 -0.2004,-0.391589 -0.9539,-1.369306 -1.09787,-1.424549 -0.0504,-0.01933 -0.28092,0.07699 -0.51233,0.214048 -0.74216,0.439569 -1.55225,0.829479 -1.80114,0.866914 -0.21436,0.03224 -0.23127,0.02582 -0.14835,-0.05638 0.0515,-0.05102 0.37439,-0.24126 0.71758,-0.422748 1.13756,-0.601576 1.46635,-0.850798 1.46635,-1.111486 0,-0.145471 0.0145,-0.139629 0.30031,0.12087 0.16517,0.150551 0.50191,0.43514 0.74831,0.63242 0.57788,0.462672 0.77071,0.736529 0.97103,1.379008 0.26502,0.850036 0.39668,0.843308 0.45862,-0.02344 0.0591,-0.826875 -0.2695,-1.81921 -0.90201,-2.724026 -0.31177,-0.445987 -0.58204,-0.741808 -0.85322,-0.933872 -0.13481,-0.09548 -0.17019,-0.15872 -0.1371,-0.244983 0.0378,-0.09847 0.13436,-0.02576 0.63042,0.474592 0.59127,0.596398 0.99407,1.136782 1.17947,1.58234 0.14902,0.358136 0.41973,1.510336 0.45719,1.945957 0.0326,0.378668 0.0324,0.37936 -0.20905,0.580551 -0.13291,0.110787 -0.50106,0.330951 -0.81811,0.489255 -0.69504,0.347031 -1.07425,0.400489 -1.65563,0.233398 -0.52066,-0.149641 -1.7206,-0.156064 -2.05776,-0.01102 -0.22965,0.09879 -0.23412,0.09812 -0.24097,-0.03655 z m -6.54479,-0.03303 c -0.25739,-0.05324 -0.47308,-0.09886 -0.4793,-0.101398 -0.0259,-0.01055 0.16856,-1.209494 0.23606,-1.45539 0.0674,-0.245383 0.0819,-0.259306 0.17878,-0.171594 0.058,0.0525 0.14138,0.09546 0.18524,0.09546 0.0522,0 0.0636,0.03779 0.0331,0.109196 -0.15357,0.359093 -0.0674,0.854838 0.21732,1.250941 0.25066,0.348669 0.2692,0.387961 0.1785,0.378288 -0.045,-0.0048 -0.29227,-0.05227 -0.54966,-0.105501 z m -25.48596,-0.921314 c 0.059,-0.201375 0.0692,-0.523328 0.0254,-0.799763 -0.0178,-0.112134 7.4e-4,-0.191801 0.0492,-0.207992 0.0429,-0.01443 0.078,0.01478 0.078,0.06491 0,0.05014 0.0419,0.125952 0.0932,0.16848 0.0665,0.05516 0.0825,0.144017 0.0559,0.310062 -0.0335,0.209743 -0.0165,0.249029 0.17203,0.397608 l 0.20923,0.164869 -0.16379,6.93e-4 c -0.0901,3.74e-4 -0.25567,0.01907 -0.36797,0.04153 -0.20116,0.04023 -0.20339,0.03816 -0.15109,-0.140395 z m 7.51541,-0.568318 c 0,-0.03611 0.0421,-0.166458 0.0936,-0.289663 0.13285,-0.317969 0.1181,-0.704023 -0.0365,-0.954128 -0.0716,-0.115754 -0.33128,-0.375288 -0.57718,-0.576744 -0.51975,-0.425788 -0.69387,-0.60722 -0.62277,-0.648894 0.028,-0.0164 0.2616,0.01366 0.51918,0.0668 0.54472,0.112376 0.81084,0.07328 0.81084,-0.119136 0,-0.224086 0.19736,-0.560678 0.79435,-1.354725 0.31812,-0.423118 0.5784,-0.809204 0.5784,-0.857969 0,-0.04877 0.0385,-0.08866 0.0856,-0.08866 0.0911,0 0.88196,0.508913 1.19177,0.766896 l 0.1854,0.154383 -0.4508,-0.03226 c -0.33659,-0.02408 -0.52143,-0.0053 -0.72964,0.07424 -0.35095,0.134027 -0.77407,0.595515 -1.03851,1.132658 -0.16672,0.338653 -0.20196,0.49162 -0.228,0.989542 -0.0308,0.588698 -0.0307,0.589052 0.15692,0.776703 l 0.18774,0.187735 -0.29117,0.268166 c -0.5528,0.509108 -0.62925,0.570465 -0.62925,0.505056 z m 19.98984,-0.236889 c 0.042,-0.109495 -0.0301,-0.123512 -0.12859,-0.025 -0.0729,0.07287 -0.33075,0.02101 -0.33075,-0.06652 0,-0.08051 0.57234,-0.109041 0.76436,-0.0381 0.0944,0.03486 0.1716,0.08531 0.1716,0.112104 0,0.08046 -0.23672,0.05485 -0.27066,-0.02928 -0.0188,-0.04659 -0.0335,-0.03403 -0.0364,0.0312 -0.003,0.06006 -0.05,0.109197 -0.1052,0.109197 -0.0635,0 -0.0871,-0.03433 -0.0643,-0.0936 z m -27.22797,-0.0624 c -0.0864,-0.104155 -0.0692,-0.11033 0.2653,-0.09486 0.20755,0.0096 0.23231,-0.0049 0.21838,-0.127471 -0.009,-0.07606 0.017,-0.149965 0.0571,-0.164227 0.0845,-0.03013 0.13046,0.137136 0.0937,0.341147 -0.0206,0.114002 -0.0427,0.127486 -0.11345,0.06882 -0.0665,-0.05516 -0.12623,-0.05549 -0.24498,-0.0014 -0.19549,0.08907 -0.18299,0.09006 -0.27601,-0.02203 z m 25.21116,0.003 c -0.14763,-0.177888 0.0562,-0.454004 0.27348,-0.370598 0.13715,0.05263 0.16069,0.184039 0.059,0.329242 -0.10789,0.154024 -0.22669,0.168802 -0.33246,0.04136 z m 1.33291,-0.01955 c -0.0796,-0.0532 -0.0926,-0.266948 -0.0218,-0.357831 0.0308,-0.03957 -0.0529,-0.06185 -0.22892,-0.06088 -0.23039,0.0013 -0.30396,0.03305 -0.43323,0.187193 l -0.15572,0.18568 0.0167,-0.187193 c 0.0116,-0.129875 -0.009,-0.181757 -0.0671,-0.16944 -0.0461,0.0098 -0.14189,-6.86e-4 -0.2129,-0.02323 -0.12581,-0.03993 -0.12525,-0.04313 0.022,-0.124738 0.24446,-0.135426 0.7346,-0.104229 1.08715,0.0692 0.1716,0.08441 0.34366,0.153729 0.38235,0.154043 0.0387,3.12e-4 0.10531,0.04269 0.14804,0.09417 0.0662,0.0798 0.0489,0.0936 -0.11716,0.0936 -0.13486,-1e-6 -0.19483,-0.02994 -0.19483,-0.09728 0,-0.05351 -0.0283,-0.07979 -0.0629,-0.05841 -0.0346,0.02138 -0.0505,0.107273 -0.0353,0.190876 0.0283,0.156089 -0.006,0.18457 -0.12634,0.104251 z m -0.38382,-0.09842 c -0.21441,-0.06245 -0.25325,-0.126928 -0.1248,-0.207173 0.1849,-0.115509 0.39464,-0.0059 0.34834,0.182003 -0.0159,0.06472 -0.0677,0.07055 -0.22354,0.02517 z m -28.84336,-0.03656 c 0,-0.106115 0.20199,-0.261722 0.29394,-0.226438 0.0499,0.01913 0.1024,0.03479 0.11675,0.03479 0.0737,0 0.0123,0.179136 -0.0726,0.211715 -0.14816,0.05686 -0.33808,0.04558 -0.33808,-0.02007 z m 5.12787,-0.08245 c 0.0265,-0.18632 0.30073,-0.239047 0.30073,-0.05782 0,0.113267 -0.11101,0.198209 -0.25903,0.198209 -0.0339,0 -0.0527,-0.06317 -0.0417,-0.140395 z m -2.25757,0.0156 c 0.12098,-0.07818 0.18719,-0.07818 0.18719,0 0,0.03432 -0.0632,0.06197 -0.14039,0.06144 -0.11353,-8.1e-4 -0.12249,-0.01253 -0.0468,-0.06144 z m 2.69739,-0.07405 c 0.0311,-0.09328 0.1729,-0.144632 0.1729,-0.06261 0,0.0335 -0.0444,0.07798 -0.0988,0.09884 -0.0608,0.02332 -0.0893,0.0094 -0.0741,-0.03622 z m -0.13909,-0.172255 c 0,-0.03031 0.25657,-0.197888 0.57015,-0.372386 0.42787,-0.238098 0.63441,-0.317271 0.82769,-0.317271 0.14165,0 0.36243,-0.05621 0.49062,-0.124917 l 0.23307,-0.124916 -7.4e-4,0.265311 c -5e-4,0.145922 -0.0231,0.300241 -0.0503,0.342932 -0.0273,0.04298 -0.23081,0.09108 -0.45604,0.107792 -0.22372,0.0166 -0.51608,0.07585 -0.6497,0.131681 -0.26887,0.112337 -0.96458,0.178531 -0.96458,0.09177 z m 16.83169,-0.289376 c -0.0201,-0.02008 -0.008,-0.118354 0.0269,-0.218392 0.046,-0.131874 0.10404,-0.181889 0.21119,-0.181889 h 0.14778 l -0.12885,0.218392 c -0.12634,0.214135 -0.18399,0.254928 -0.25703,0.181889 z M 162.28692,63.4542 c -0.0166,-0.06006 -0.0468,-0.249591 -0.0672,-0.421185 l -0.0371,-0.311989 0.12642,0.233056 c 0.15164,0.279553 0.31766,0.333127 0.74701,0.241049 0.73046,-0.156656 1.18691,-0.551451 1.18691,-1.02658 0,-0.261119 0.0259,-0.22995 -0.91607,-1.101065 -0.46142,-0.426697 -0.70556,-0.851863 -0.98603,-1.717178 -0.12029,-0.371114 -0.26074,-0.738901 -0.3121,-0.817303 -0.26465,-0.403899 -0.8925,-0.769783 -1.90988,-1.112983 -0.75124,-0.253424 -0.72367,-0.270495 0.14949,-0.09256 0.72874,0.148508 1.31367,0.415785 1.69852,0.776129 0.2769,0.25926 0.40315,0.560502 0.4038,0.963535 7.3e-4,0.503527 1.13495,1.896728 2.04262,2.509221 0.253,0.170723 0.49058,0.377515 0.52795,0.459538 0.10329,0.226693 -0.0422,0.501299 -0.4117,0.777086 -0.43697,0.326139 -0.74789,0.472845 -1.31934,0.622523 -0.61283,0.160515 -0.88265,0.16598 -0.92333,0.0187 z m -15.4529,-0.078 c 0,-0.03432 0.0983,-0.0624 0.2184,-0.0624 0.24233,0 0.40083,-0.125428 0.56747,-0.449065 0.0584,-0.113361 0.20074,-0.321903 0.31637,-0.463426 0.12636,-0.154649 0.1954,-0.295993 0.17305,-0.354253 -0.0205,-0.05331 -0.30875,-0.200859 -0.64064,-0.327874 -1.64163,-0.628248 -2.08962,-1.289366 -1.55501,-2.294756 0.24432,-0.459457 0.71987,-0.948867 1.14131,-1.174567 0.17019,-0.09114 0.63256,-0.249741 1.02749,-0.352436 1.11194,-0.28914 1.69112,-0.611593 1.78737,-0.995093 0.0568,-0.22645 -0.19724,-0.444442 -0.66828,-0.573384 l -0.39274,-0.107507 0.64755,-0.162377 c 0.35616,-0.08931 0.66996,-0.148528 0.69735,-0.131603 0.0274,0.01692 0.0498,0.08174 0.0498,0.144041 0,0.172007 0.18086,0.647879 0.26703,0.702634 0.12936,0.08219 0.47806,0.05541 0.68727,-0.05277 0.10963,-0.0567 0.35393,-0.216486 0.54289,-0.355099 0.18895,-0.138612 0.43369,-0.317445 0.54388,-0.397406 0.11019,-0.07996 0.18617,-0.182306 0.16885,-0.227431 -0.10204,-0.265902 -1.03307,-0.382281 -1.55474,-0.194341 -0.31517,0.113545 -1.21897,0.11429 -3.08869,0.0026 -1.43845,-0.08597 -2.74066,-0.04166 -3.14316,0.106956 -0.38868,0.143514 -0.45262,0.767092 -0.22572,2.201166 0.19035,1.203077 0.12358,1.520235 -0.37341,1.773782 -0.2804,0.143049 -0.51905,0.161666 -0.61021,0.0476 -0.0343,-0.0429 -0.0823,-0.246471 -0.1068,-0.452384 l -0.0444,-0.374386 0.14797,0.218392 c 0.17046,0.25159 0.39274,0.305408 0.58072,0.140605 0.11882,-0.104163 0.12388,-0.174733 0.10572,-1.472446 l -0.0191,-1.363041 -0.16811,0.04198 c -0.43057,0.107515 -1.22911,0.508389 -1.49813,0.752077 -0.28614,0.25919 -0.29224,0.272506 -0.28863,0.630421 0.002,0.218582 0.0468,0.447201 0.1108,0.568432 0.0589,0.111536 0.0902,0.202793 0.0696,0.202793 -0.0669,0 -1.27147,-0.84086 -1.27377,-0.889168 -0.001,-0.02574 0.0609,-0.04695 0.13817,-0.04715 0.0772,-1.87e-4 0.33694,-0.157495 0.57718,-0.349564 1.33157,-1.064611 2.82874,-1.871206 3.68918,-1.987525 0.17583,-0.02377 1.10244,0.0045 2.05912,0.06287 2.04086,0.124476 2.81744,0.09741 3.61091,-0.125853 0.30864,-0.08684 0.65045,-0.157889 0.7596,-0.157889 0.25822,0 0.53922,0.237937 0.67153,0.568626 0.0932,0.232961 0.0938,0.270944 0.007,0.404519 -0.0531,0.08108 -0.18056,0.190841 -0.2832,0.243915 -0.10264,0.05308 -0.18661,0.141059 -0.18661,0.195524 0,0.05446 0.19762,0.281991 0.43916,0.505613 0.24153,0.223622 0.43005,0.415678 0.41894,0.42679 -0.0111,0.01111 -0.25786,-0.07405 -0.54834,-0.189238 -0.29048,-0.115193 -0.69684,-0.242533 -0.90303,-0.282976 -0.34966,-0.06858 -0.40425,-0.06248 -0.81117,0.09067 -0.92198,0.346997 -1.40345,0.658984 -1.40345,0.90941 0,0.06068 0.20104,0.414861 0.44674,0.787062 0.24572,0.372201 0.53116,0.859243 0.63432,1.082315 0.10316,0.223072 0.32563,0.583434 0.49439,0.800805 0.16874,0.217371 0.28896,0.413068 0.26715,0.434881 -0.0218,0.02181 -0.11514,-0.05776 -0.20738,-0.176827 -0.0923,-0.119069 -0.3291,-0.390916 -0.52634,-0.604104 -0.41876,-0.452608 -0.73495,-0.929034 -0.98196,-1.479588 -0.23234,-0.517831 -0.38919,-0.659906 -0.72853,-0.659906 -0.14635,0 -0.33059,0.02501 -0.40942,0.05558 -0.79345,0.307675 -1.2127,0.549963 -1.57013,0.9074 -0.27942,0.279422 -0.47633,0.655168 -0.47633,0.908953 0,0.44795 0.19512,0.652423 1.5108,1.583223 0.79356,0.561419 0.89585,0.814755 0.49202,1.218578 -0.39146,0.391467 -1.37885,0.797975 -1.37885,0.567678 z m 6.7491,-0.16794 c -0.15175,-0.05365 -0.247,-0.119342 -0.21681,-0.14953 0.0717,-0.07173 0.50377,0.06387 0.54488,0.17102 0.0391,0.101763 0.0163,0.100274 -0.32807,-0.02149 z m -19.04145,-0.01627 c -0.0858,-0.0219 -0.15599,-0.07349 -0.15599,-0.114637 0,-0.09686 0.66151,-0.640577 0.72877,-0.599002 0.0945,0.05837 0.0524,0.317889 -0.0784,0.484236 -0.16996,0.216057 -0.30362,0.278084 -0.49435,0.229403 z m -3.71662,-0.09077 c -0.0697,-0.04883 -0.24202,-0.08183 -0.38827,-0.07436 -0.29216,0.01492 -0.28365,0.03261 -0.26343,-0.548014 0.008,-0.226006 0.0495,-0.346558 0.16154,-0.467346 0.0906,-0.09767 0.15093,-0.128501 0.15093,-0.07708 0,0.122212 0.29824,0.362656 0.60814,0.490282 0.27589,0.11362 0.28911,0.144725 0.22538,0.530303 -0.0333,0.201708 -0.0615,0.233992 -0.20383,0.233992 -0.0908,0 -0.22153,-0.0395 -0.29046,-0.08778 z m 6.46408,-0.0035 c -0.0432,-0.05202 -0.10339,-0.07919 -0.13382,-0.06038 -0.0304,0.01881 -0.0554,-0.04487 -0.0554,-0.141494 0,-0.09663 -0.0256,-0.264924 -0.0569,-0.373991 -0.0466,-0.162463 -0.0405,-0.192032 0.0335,-0.163613 0.0497,0.01908 0.14221,-0.0122 0.20553,-0.06951 0.0782,-0.0708 0.16748,-0.09106 0.27847,-0.0632 0.14515,0.03644 0.16333,0.07148 0.16333,0.315019 0,0.150714 -0.0285,0.274025 -0.0633,0.274025 -0.0349,0 -0.115,0.08499 -0.17816,0.188862 -0.0996,0.163844 -0.12526,0.176333 -0.19335,0.09428 z m 15.42091,-0.110876 c 0.11673,-0.163931 0.14798,-0.181047 0.16539,-0.0906 0.0257,0.133482 -0.0935,0.292715 -0.21911,0.292715 -0.0677,0 -0.0542,-0.0506 0.0537,-0.202117 z m -19.3065,-0.61043 c -0.40765,-0.139707 -0.42974,-0.185818 -0.089,-0.185818 0.269,0 0.29119,-0.01189 0.29119,-0.155995 0,-0.160106 -0.022,-0.171736 -0.34319,-0.181501 -0.10296,-0.0031 -0.1872,-0.03377 -0.1872,-0.06809 0,-0.03514 0.11586,-0.05313 0.2652,-0.04117 l 0.26519,0.02122 v -0.281623 c 0,-0.480806 0.23998,-0.666245 1.67765,-1.296358 0.43143,-0.189089 0.9434,-0.661849 0.94209,-0.869951 -0.002,-0.297757 -0.0702,-0.330676 -0.60127,-0.289686 -0.26935,0.02079 -0.55666,0.05733 -0.63848,0.0812 -0.10869,0.03171 -0.14135,0.02121 -0.12128,-0.03899 0.0494,-0.148017 0.50555,-0.265537 1.05869,-0.272717 0.60719,-0.0079 0.80248,0.08919 0.80248,0.398896 0,0.442913 -0.94129,1.277192 -2.09958,1.860883 -0.46661,0.235136 -0.64592,0.445653 -0.64592,0.758341 0,0.216205 -0.14114,0.597441 -0.23794,0.642702 -0.0236,0.01102 -0.17594,-0.02558 -0.33861,-0.08133 z m 32.61372,-0.04281 c -0.0922,-0.09219 -0.10111,-0.190206 -0.066,-0.725756 0.0279,-0.425871 0.0184,-0.645841 -0.0303,-0.704589 -0.0483,-0.05827 -0.21831,-0.08541 -0.5348,-0.08541 -0.74636,0 -1.33118,-0.205383 -1.73607,-0.609691 -0.24564,-0.245287 -0.28065,-0.383339 -0.28065,-1.106627 0,-0.364313 -0.0273,-0.664295 -0.0624,-0.685996 -0.12348,-0.07632 -0.059,-0.163879 0.10654,-0.144539 0.11375,0.0133 0.23778,0.110225 0.37968,0.29672 0.20022,0.263151 0.20969,0.2989 0.18985,0.716178 l -0.0209,0.439201 0.38866,0.139448 c 0.21376,0.0767 0.71918,0.184812 1.12316,0.24026 0.81989,0.112534 1.13824,0.22853 1.54745,0.563844 0.31205,0.255708 0.35988,0.366053 0.11895,0.274453 -0.21832,-0.08301 -0.48571,-0.0765 -0.57624,0.01403 -0.18649,0.186495 -0.0197,0.720556 0.37137,1.188676 l 0.24757,0.29639 h -0.52964 c -0.41628,0 -0.55246,-0.02281 -0.63622,-0.106582 z m -30.53925,-0.04896 c -0.10286,-0.123941 -0.0758,-0.178186 0.36783,-0.736406 0.41599,-0.523479 0.89124,-0.913598 1.11594,-0.916036 0.19864,-0.0021 0.40745,0.148476 0.60902,0.439327 0.231,0.333334 0.14516,0.38635 -0.15344,0.09477 -0.30831,-0.301058 -0.38269,-0.277962 -0.86977,0.270102 -0.20906,0.235224 -0.51798,0.543108 -0.68648,0.684188 -0.26324,0.220399 -0.31717,0.243493 -0.3831,0.164053 z m -4.32142,-0.285488 c -0.24462,-0.129137 -0.31103,-0.33053 -0.15911,-0.482453 0.083,-0.08297 0.52433,-0.103036 0.57194,-0.02601 0.0402,0.06497 -0.0837,0.638278 -0.13709,0.634748 -0.023,-0.0015 -0.14704,-0.05835 -0.27574,-0.126287 z m 19.67405,-0.217395 c 0.13956,-0.143993 0.25477,-0.211197 0.32885,-0.191824 0.0641,0.01677 0.16936,-0.0255 0.24044,-0.09658 0.0832,-0.08317 0.14747,-0.105338 0.188,-0.06481 0.0339,0.03388 0.0381,0.07575 0.009,0.09304 -0.21945,0.132113 -0.89835,0.48182 -0.93537,0.48182 -0.0254,0 0.0506,-0.09974 0.16872,-0.221644 z m 7.01445,-0.355534 c -0.16946,-0.357116 -0.22539,-0.414173 -0.66362,-0.676936 -0.5486,-0.32895 -1.12741,-0.528349 -1.79895,-0.619746 -0.34372,-0.04678 -0.64648,-0.147938 -1.14021,-0.380968 -1.03771,-0.489777 -1.26984,-0.504373 -1.51664,-0.09537 -0.11153,0.184829 -0.12045,0.188528 -0.13935,0.05777 -0.0209,-0.144344 0.1575,-1.113783 0.22895,-1.244405 0.0272,-0.04975 0.30441,0.07953 0.85142,0.397086 1.01413,0.588734 2.40815,1.265615 3.03857,1.475413 0.68667,0.228516 1.14565,0.269079 1.54476,0.136517 0.17757,-0.05898 0.33808,-0.09202 0.35668,-0.07343 0.0186,0.0186 -0.0562,0.126756 -0.16606,0.240349 -0.28633,0.295845 -0.45824,0.69995 -0.40914,0.961695 0.0219,0.116601 0.0305,0.212004 0.0192,0.212004 -0.0113,0 -0.10384,-0.175494 -0.20562,-0.389986 z m -25.23667,-0.650602 c 0.002,-1.388113 0.31008,-1.956356 1.49647,-2.764281 0.36644,-0.249543 0.99673,-0.585399 1.03215,-0.549985 0.0117,0.01176 -0.19842,0.183777 -0.46707,0.382263 -0.73477,0.542865 -1.40805,1.24936 -1.64383,1.724917 -0.18763,0.378465 -0.20071,0.448063 -0.20519,1.091961 -0.004,0.59099 -0.0195,0.690567 -0.10919,0.707904 -0.092,0.01777 -0.10429,-0.05294 -0.10334,-0.592779 z m -1.30224,0.238152 c -0.1441,-0.04046 -0.14137,-0.04783 0.14803,-0.399365 0.16217,-0.196979 0.3165,-0.358144 0.34297,-0.358144 0.0424,0 0.0189,0.163623 -0.0963,0.670776 -0.0326,0.143596 -0.12214,0.163269 -0.3947,0.08673 z m 28.3058,-0.79189 c -0.0213,-0.02128 -0.0245,-0.183708 -0.007,-0.360944 l 0.0316,-0.322249 -0.52028,-0.291619 c -0.92097,-0.516221 -0.87181,-0.504906 -2.3922,-0.550544 -1.47538,-0.04429 -1.84987,-0.110503 -2.01037,-0.355459 -0.14183,-0.21646 -0.0147,-0.331122 0.367,-0.331122 0.21523,0 0.36054,0.03968 0.4866,0.132879 0.15859,0.117246 0.24151,0.129637 0.70481,0.10532 0.6522,-0.03423 0.87009,-0.150424 1.15139,-0.613995 0.27856,-0.459039 0.25318,-0.682845 -0.13088,-1.154316 -0.15767,-0.193561 -0.33439,-0.432702 -0.39271,-0.531423 -0.14956,-0.253185 -0.32304,-0.300457 -1.18137,-0.321896 l -0.75594,-0.01888 0.0619,0.135794 c 0.15239,0.334414 -0.16124,0.67795 -0.48448,0.530671 -0.20677,-0.09421 -0.40492,-0.429129 -0.40521,-0.6849 -3.1e-4,-0.286081 0.2205,-0.490614 0.5894,-0.545935 0.16133,-0.02419 0.27015,-0.06487 0.24183,-0.0904 -0.0584,-0.05266 -1.21846,-0.250002 -1.46956,-0.250002 -0.19121,0 -0.19343,-0.0055 -0.33168,-0.811171 -0.0716,-0.417197 -0.0893,-0.744503 -0.0598,-1.105017 0.0411,-0.502066 0.0391,-0.512796 -0.10383,-0.540161 -0.0802,-0.01536 -0.37041,-0.07491 -0.64497,-0.132331 -0.7431,-0.155431 -0.68932,-0.17103 -0.66569,0.193078 0.0147,0.227244 -0.0364,0.504786 -0.17828,0.967165 -0.10942,0.356656 -0.2192,0.718663 -0.24395,0.804459 -0.0281,0.09736 -0.0989,0.163881 -0.18847,0.176977 -0.13607,0.0199 -0.14064,0.0086 -0.0887,-0.218392 0.0301,-0.131656 0.0542,-0.793934 0.0537,-1.471729 l -0.001,-1.232356 h 0.66971 c 0.61501,0 0.67539,-0.01063 0.73935,-0.13014 0.0835,-0.155938 0.11549,-0.129023 -0.36165,-0.303802 -0.2849,-0.104361 -0.38998,-0.173722 -0.38998,-0.257416 0,-0.09972 0.0626,-0.116924 0.48299,-0.132787 l 0.48298,-0.01823 0.0441,-0.310012 c 0.0243,-0.170507 0.0371,-0.317123 0.0284,-0.325814 -0.009,-0.0087 -0.21082,0.053 -0.44917,0.137102 -0.23834,0.0841 -0.48897,0.153497 -0.55695,0.154221 -0.068,7.24e-4 -0.36982,-0.08676 -0.67077,-0.194416 -0.47839,-0.171126 -0.54718,-0.214269 -0.54718,-0.343188 0,-0.173902 0.0885,-0.180438 0.81117,-0.05987 l 0.46798,0.07808 0.67267,-0.333889 0.67266,-0.33389 -0.0392,0.422653 c -0.0216,0.232459 -0.0664,0.530784 -0.0996,0.662943 -0.0332,0.13216 -0.0467,0.2539 -0.0301,0.270534 0.0512,0.05118 0.17115,-0.222956 0.29816,-0.681304 0.0667,-0.240611 0.16054,-0.513489 0.20858,-0.606395 0.0696,-0.13468 0.0732,-0.224842 0.0176,-0.444796 -0.0702,-0.277573 -0.34089,-0.617359 -0.49477,-0.621046 -0.0523,-0.0013 -0.0383,-0.03569 0.0383,-0.0936 0.18079,-0.136742 0.53301,-0.111015 0.88559,0.06468 0.41065,0.204631 0.62938,0.431924 0.53042,0.551168 -0.0559,0.06728 -0.0506,0.105144 0.0228,0.166102 0.0688,0.05707 0.0768,0.101013 0.0291,0.158522 -0.0363,0.04376 -0.059,0.198021 -0.0505,0.342798 0.0125,0.211845 -0.013,0.286337 -0.13064,0.38159 -0.13775,0.111542 -0.14418,0.147913 -0.11171,0.631687 0.0381,0.567859 0.16879,0.998997 0.36662,1.209589 l 0.12987,0.138233 -0.26429,0.01954 -0.26428,0.01954 -0.0237,0.280789 c -0.0161,0.19111 -0.0665,0.316319 -0.15791,0.392032 -0.1122,0.093 -0.14254,0.209903 -0.18497,0.712762 -0.0279,0.330836 -0.0721,0.730041 -0.0983,0.887122 -0.0262,0.157081 -0.0482,0.311597 -0.049,0.343368 -7.4e-4,0.03177 0.18104,0.0512 0.40411,0.04317 0.36273,-0.01305 0.44845,0.0091 0.81117,0.209195 0.22307,0.123087 0.54072,0.286173 0.70588,0.362416 0.26394,0.121834 0.29657,0.157804 0.2694,0.297004 -0.028,0.143337 -0.005,0.164326 0.23881,0.22096 0.23326,0.05412 0.27915,0.04747 0.33951,-0.04919 0.0384,-0.06147 0.10508,-0.111763 0.1482,-0.111763 0.12435,0 0.49819,0.217668 1.06189,0.618289 0.49712,0.353301 1.45321,0.879257 1.59833,0.879257 0.0375,0 0.0681,0.02106 0.0679,0.0468 -1.9e-4,0.02574 -0.13287,0.05454 -0.29489,0.06401 -0.37067,0.02166 -0.474,0.111548 -0.22975,0.199845 0.22316,0.08067 0.46863,0.202666 0.33193,0.164968 -0.0547,-0.01508 -0.25302,-0.04661 -0.44077,-0.07006 -0.31121,-0.03888 -0.35893,-0.02787 -0.54017,0.12463 -0.18064,0.152009 -0.19871,0.199528 -0.19787,0.52052 5e-4,0.194282 0.0358,0.422153 0.0784,0.50638 0.13474,0.266242 0.56676,0.53691 1.14463,0.717118 0.95592,0.298105 0.89757,0.259871 0.89746,0.58806 -1.2e-4,0.443797 -0.27996,0.89273 -0.45027,0.72242 z M 153.347,51.224197 C 153.2933,51.000378 153.2928,51 153.14564,51.078746 c -0.0694,0.0371 -0.18103,0.06746 -0.24826,0.06746 -0.0672,0 -0.13771,0.04037 -0.15664,0.08971 -0.0367,0.09562 0.0826,0.136353 0.44344,0.151385 0.19217,0.008 0.20161,-0.0015 0.16282,-0.163096 z m 0.6899,0.04835 c 0.23463,-0.0892 0.20581,-0.213488 -0.0382,-0.164688 -0.23407,0.04681 -0.26484,0.07012 -0.20991,0.158992 0.0501,0.0811 0.0497,0.08109 0.24809,0.0057 z m -16.16025,6.809702 c -0.27273,-0.131834 -0.59824,-0.273435 -0.72333,-0.314669 -0.18946,-0.06245 -0.22188,-0.09797 -0.19411,-0.212686 0.0873,-0.360683 0.64636,-0.895999 1.07673,-1.030996 0.30527,-0.09575 0.99919,-0.163822 0.9944,-0.09754 -0.002,0.03017 -0.25525,0.175843 -0.56236,0.323712 -0.30712,0.147869 -0.63525,0.33564 -0.7292,0.417268 l -0.17082,0.148414 0.48358,0.472861 c 0.26597,0.260074 0.48359,0.486469 0.48359,0.5031 0,0.07573 -0.20027,0.01203 -0.65848,-0.209461 z m 3.96556,-3.005658 c 0,-0.06421 -0.0242,-0.131691 -0.0537,-0.149944 -0.0296,-0.01826 -0.018,-0.170815 0.0256,-0.339027 0.1217,-0.469203 0.22184,-1.412665 0.17862,-1.682952 -0.0263,-0.164739 -0.007,-0.303676 0.061,-0.434836 0.0887,-0.171464 0.12289,-0.18898 0.3099,-0.158633 0.2561,0.04156 0.47694,-0.0655 0.47694,-0.231221 0,-0.09421 -0.0397,-0.120633 -0.1716,-0.114103 -0.14713,0.0073 -0.15157,0.01235 -0.0312,0.03554 0.28889,0.05564 0.12417,0.267953 -0.20789,0.267953 -0.21726,0 -0.1863,-0.122493 0.0988,-0.390743 0.13722,-0.129111 0.24949,-0.276414 0.24949,-0.327339 0,-0.05093 -0.0593,-0.263727 -0.13161,-0.472891 -0.0964,-0.278497 -0.11308,-0.398828 -0.0624,-0.449512 0.0995,-0.09951 0.0854,-0.580713 -0.0201,-0.686228 -0.0491,-0.04912 -0.0983,-0.19637 -0.1092,-0.327222 -0.0192,-0.229792 -0.0323,-0.242026 -0.3825,-0.358404 -0.35511,-0.118004 -0.36029,-0.123035 -0.25102,-0.243781 0.0808,-0.08924 0.16022,-0.113562 0.28771,-0.08807 0.1295,0.0259 0.16388,0.01483 0.12985,-0.04183 -0.0366,-0.06096 -0.0265,-0.06107 0.0483,-5.62e-4 0.10015,0.08102 0.2418,0.0012 0.24097,-0.135791 -6.6e-4,-0.109606 -0.35166,-0.273024 -0.55603,-0.258875 -0.10579,0.0073 -0.192,-0.0024 -0.19156,-0.02146 4.3e-4,-0.01913 0.1588,-0.173371 0.35192,-0.342767 0.37067,-0.325115 0.70806,-0.794087 0.70806,-0.984208 0,-0.06238 0.0242,-0.162183 0.0537,-0.221775 0.0296,-0.05959 0.13822,-0.290863 0.24145,-0.513935 0.22066,-0.476828 0.68474,-1.016995 1.02124,-1.188663 0.13119,-0.06693 0.25048,-0.121689 0.2651,-0.121689 0.0146,0 0.076,0.104059 0.13631,0.231243 0.0754,0.158863 0.1166,0.427412 0.13169,0.857969 0.0121,0.344699 0.0431,0.893 0.069,1.218445 l 0.047,0.59172 0.77682,0.63617 0.77682,0.636169 0.20811,-0.182728 c 0.24339,-0.213697 0.6422,-0.249538 0.88493,-0.07953 0.11366,0.07962 0.17266,0.08739 0.25813,0.034 0.0907,-0.05667 0.12872,-0.04185 0.20974,0.0818 0.0544,0.08305 0.0989,0.166579 0.0989,0.185628 0,0.01905 0.0702,0.145835 0.156,0.281746 0.12518,0.198291 0.15599,0.327483 0.15599,0.653936 0,0.380882 -0.009,0.406698 -0.1404,0.404841 -0.0772,-0.0011 -0.19267,-0.04158 -0.25656,-0.08998 -0.10126,-0.0767 -0.14364,-0.07328 -0.33012,0.02668 -0.32431,0.173816 -0.59614,0.0726 -0.74299,-0.276654 -0.0922,-0.219183 0.008,-0.479642 0.23119,-0.598885 0.10599,-0.05673 0.11525,-0.08193 0.0461,-0.125689 -0.0475,-0.03011 -0.056,-0.05516 -0.0189,-0.05569 0.0372,-4.99e-4 0.087,0.01849 0.1108,0.04225 0.0237,0.02376 0.10419,0.05251 0.17873,0.06389 0.0745,0.01138 0.1835,0.0641 0.24214,0.117175 0.0965,0.08732 0.11904,0.08586 0.23726,-0.01536 0.0719,-0.06152 0.13063,-0.135289 0.13063,-0.163932 0,-0.02865 -0.21214,-0.14876 -0.47144,-0.266923 -0.7068,-0.322098 -0.81152,-0.300402 -1.1022,0.228349 -0.11127,0.202389 -0.2239,0.367979 -0.2503,0.367979 -0.0781,0 -0.055,-0.179858 0.049,-0.381006 0.0798,-0.154287 0.0815,-0.18422 0.01,-0.168496 -0.048,0.01052 -0.49933,-0.232879 -1.003,-0.540879 -0.94208,-0.576093 -1.00211,-0.635877 -1.18982,-1.185026 -0.0316,-0.09253 -0.10281,0.02858 -0.28958,0.492706 -0.13621,0.338467 -0.24006,0.622647 -0.23077,0.631511 0.0441,0.0421 0.39976,0.04943 0.46426,0.0096 0.13747,-0.08496 0.40505,0.309076 0.58291,0.858387 0.044,0.135926 0.14843,0.383339 0.23204,0.549809 0.0836,0.166469 0.13838,0.338232 0.1217,0.381693 -0.0166,0.04346 0.0386,0.215086 0.12295,0.381386 0.0843,0.166301 0.19494,0.521976 0.24585,0.790389 0.10695,0.563764 0.51893,2.048999 0.71008,2.559906 0.11719,0.313207 0.15292,0.35334 0.347,0.389752 0.34199,0.06415 0.26849,0.183285 -0.0871,0.141173 -0.18113,-0.02145 -0.33037,-0.009 -0.3702,0.03079 -0.10656,0.106557 -0.26231,0.0062 -0.26231,-0.168996 0,-0.224222 -0.40263,-1.285032 -0.68651,-1.808769 -0.18841,-0.347576 -0.23329,-0.492387 -0.21978,-0.709029 0.009,-0.149735 0.0477,-0.291201 0.0851,-0.314369 0.10177,-0.0629 -0.0662,-0.347515 -0.44369,-0.75187 -0.34513,-0.369675 -0.54078,-0.512033 -0.62889,-0.457581 -0.1036,0.06403 -0.16349,-0.13971 -0.16445,-0.559449 l -7.3e-4,-0.421185 h 0.27371 c 0.25641,0 0.27543,-0.01183 0.30118,-0.187193 0.0273,-0.185932 0.0254,-0.187193 -0.27371,-0.187193 h -0.30118 v -0.218392 c 0,-0.207993 -0.0104,-0.218392 -0.2184,-0.218392 -0.20799,0 -0.21839,0.0104 -0.21839,0.218392 0,0.213787 -0.005,0.218392 -0.25373,0.218392 -0.23999,0 -0.25267,0.0093 -0.234,0.171594 0.0171,0.148483 0.0492,0.172903 0.23814,0.181321 0.12012,0.0054 0.23474,0.01237 0.25473,0.0156 0.02,0.0032 0.0237,0.15901 0.008,0.346177 -0.034,0.410954 0.004,0.584348 0.17897,0.806264 0.10272,0.130578 0.15151,0.152726 0.21691,0.09845 0.21123,-0.1753 -0.1348,0.6066 -0.40064,0.905318 -0.0905,0.101645 -0.12103,0.157803 -0.0679,0.124795 0.0609,-0.03789 0.0562,-0.02262 -0.013,0.04143 -0.0602,0.0558 -0.0962,0.1147 -0.08,0.130893 0.0162,0.01619 -0.043,0.187709 -0.13156,0.381144 -0.0886,0.193436 -0.21241,0.531404 -0.27522,0.751042 -0.1354,0.473458 -0.28288,1.491155 -0.2344,1.61749 0.0188,0.04891 0.12078,0.106255 0.22668,0.127436 0.31043,0.06208 0.23971,0.189852 -0.0808,0.145925 -0.15033,-0.02061 -0.36092,-0.01234 -0.46798,0.01836 -0.16848,0.04832 -0.19466,0.04013 -0.19466,-0.06093 z m 2.70463,-4.525854 c -0.0203,-0.05296 -0.0503,-0.0829 -0.0667,-0.06655 -0.0164,0.01635 -0.0112,0.05969 0.0114,0.09629 0.0615,0.09955 0.0975,0.08021 0.0553,-0.02974 z m -0.105,-0.543288 c -0.0173,-0.0429 -0.0315,-0.0078 -0.0315,0.078 0,0.0858 0.0142,0.120896 0.0315,0.078 0.0173,-0.0429 0.0173,-0.113095 0,-0.155993 z m 11.72779,4.936451 c -0.0922,-0.107697 -0.0976,-0.14224 -0.029,-0.185709 0.0464,-0.02937 0.10233,-0.05384 0.1244,-0.05436 0.0713,-0.0017 0.11751,0.194392 0.067,0.284669 -0.0397,0.07098 -0.0707,0.06247 -0.16237,-0.0446 z m -5.30428,-0.214927 c -0.0208,-0.05429 -0.0379,-0.105763 -0.0379,-0.114395 0,-0.0086 0.0842,-0.0157 0.1872,-0.0157 0.13992,0 0.18719,0.02889 0.18719,0.114396 0,0.145229 -0.28176,0.15837 -0.33651,0.0157 z m -0.52145,-0.0077 c -0.18831,-0.03627 -0.17887,-0.183653 0.0142,-0.220547 0.085,-0.01625 0.16922,-0.01484 0.18719,0.0031 0.0504,0.05045 0.0386,0.262535 -0.0142,0.25296 -0.0257,-0.0046 -0.10997,-0.02066 -0.18719,-0.03554 z m -1.69045,-2.582947 c -0.0341,-0.09215 -0.0671,-0.11493 -0.0969,-0.06679 -0.0601,0.0973 -0.14176,0.09253 -0.18133,-0.01059 -0.0639,-0.166611 0.0472,-0.238577 0.22544,-0.146071 0.0912,0.04731 0.14751,0.104314 0.12515,0.126674 -0.0223,0.02236 0.0365,0.04065 0.13094,0.04065 0.20414,0 0.19118,0.145557 -0.0157,0.175984 -0.0945,0.01389 -0.15167,-0.02266 -0.18763,-0.119864 z m -0.54027,-0.09821 c -0.28579,-0.06324 -0.30057,-0.07661 -0.21283,-0.192639 0.0697,-0.09217 0.0689,-0.09674 -0.005,-0.03046 -0.099,0.08825 -0.33767,0.107457 -0.28546,0.02297 0.0187,-0.03026 -0.0569,-0.05547 -0.16791,-0.05603 -0.11105,-5.62e-4 -0.39976,-0.0098 -0.64157,-0.02064 l -0.43966,-0.01963 -0.26072,-0.422584 c -0.14574,-0.236214 -0.24478,-0.464117 -0.22458,-0.516759 0.0199,-0.0518 0.0572,-0.08118 0.0829,-0.06529 0.0573,0.03544 0.20747,-0.259411 0.22885,-0.449476 0.009,-0.0765 -0.0155,-0.15832 -0.0535,-0.181829 -0.0419,-0.02587 -0.0569,-0.0079 -0.0381,0.04549 0.0171,0.04853 -0.0203,0.137371 -0.083,0.197429 -0.13921,0.133277 -0.14083,0.119633 -0.0156,-0.131464 0.0542,-0.10859 0.1256,-0.180684 0.15873,-0.160209 0.0332,0.02047 0.10112,0.0033 0.15109,-0.03818 0.0755,-0.06268 0.0909,-0.04847 0.0909,0.08416 0,0.489802 0.43592,0.916469 0.93634,0.916469 0.0987,0 0.19681,-0.02808 0.21802,-0.0624 0.0212,-0.03432 0.0693,-0.0624 0.10698,-0.0624 0.0377,0 -0.009,0.06691 -0.10463,0.148697 l -0.17305,0.148697 0.36614,0.213746 c 0.20138,0.11756 0.41527,0.232279 0.47533,0.25493 0.0601,0.02265 0.1092,0.06926 0.1092,0.103581 0,0.03432 -0.0492,0.04695 -0.1092,0.02806 -0.0957,-0.0301 -0.0977,-0.02407 -0.0156,0.04898 0.1019,0.0907 0.15326,0.243263 0.078,0.231621 -0.0257,-0.004 -0.10296,-0.01966 -0.1716,-0.03485 z m -0.32239,-1.225559 c 0,-0.04406 0.0547,-0.08423 0.12145,-0.08926 0.0668,-0.005 0.11126,-0.0027 0.0988,0.0052 -0.0125,0.0079 -0.0671,0.04804 -0.12144,0.08926 -0.0778,0.05898 -0.0988,0.05788 -0.0988,-0.0052 z m -6.21339,-1.831294 c 0.0431,-0.01738 0.0599,-0.06162 0.0371,-0.09831 -0.0246,-0.03976 -0.0117,-0.04847 0.0318,-0.02156 0.0859,0.05309 0.0343,0.163516 -0.073,0.156397 -0.0532,-0.0035 -0.052,-0.01391 0.004,-0.03652 z m -0.13677,-0.16403 c 0.0234,-0.06154 0.0583,-0.09617 0.0775,-0.07696 0.0192,0.01921 4e-5,0.06956 -0.0426,0.111888 -0.0616,0.06117 -0.0688,0.054 -0.0349,-0.03493 z m 0.58877,-0.0052 c 0,-0.01296 0.0492,-0.0621 0.1092,-0.109197 0.099,-0.07761 0.10117,-0.07541 0.0236,0.02356 -0.0815,0.103939 -0.13275,0.136993 -0.13275,0.08564 z m -0.37439,-0.163635 c -0.0562,-0.03634 -0.0639,-0.06087 -0.0193,-0.06144 0.0409,-4.99e-4 0.0917,0.02712 0.11288,0.06144 0.0479,0.07747 0.0263,0.07747 -0.0936,0 z m 14.01234,-2.756207 c 0.004,-0.36636 0.0155,-0.394874 0.24198,-0.590624 0.26084,-0.225481 0.32654,-0.218178 0.59219,0.06583 0.1245,0.133096 0.15259,0.229631 0.156,0.536036 l 0.004,0.373706 h -0.49919 -0.49918 l 0.004,-0.384945 z m 0.32871,0.139868 c 0.0342,-0.233512 -0.0415,-0.441239 -0.1462,-0.401072 -0.0954,0.03661 -0.13434,0.459326 -0.05,0.543602 0.0756,0.07565 0.17486,0.0036 0.19626,-0.14253 z m 0.24784,-0.113562 c -0.0105,-0.163013 -0.0471,-0.296389 -0.0814,-0.296389 -0.0344,0 -0.071,0.133376 -0.0814,0.296389 -0.0153,0.238704 5e-4,0.29639 0.0814,0.29639 0.0809,0 0.0967,-0.05768 0.0814,-0.29639 z m 0.312,0 c -0.0105,-0.163013 -0.0471,-0.296389 -0.0814,-0.296389 -0.0343,0 -0.071,0.133376 -0.0814,0.296389 -0.0153,0.238704 5e-4,0.29639 0.0814,0.29639 0.0809,0 0.0967,-0.05768 0.0814,-0.29639 z m -0.31178,-0.519461 c -0.0123,-0.03689 -0.049,-0.06708 -0.0816,-0.06708 -0.0326,0 -0.0694,0.03019 -0.0816,0.06708 -0.0123,0.03689 0.0245,0.06708 0.0816,0.06708 0.0572,0 0.0939,-0.03019 0.0816,-0.06708 z m -11.28203,0.165778 c 0,-0.19104 0.0593,-0.348291 0.13148,-0.348291 0.0307,0 0.0557,0.03868 0.0557,0.08596 0,0.04728 0.0447,0.123015 0.0992,0.16831 0.0902,0.07488 0.0891,0.08973 -0.0119,0.163635 -0.16965,0.124043 -0.2745,0.09745 -0.2745,-0.06961 z m -0.38389,-0.477732 c -0.0963,-0.100886 -0.0902,-0.120419 0.0936,-0.29768 0.10819,-0.104341 0.27178,-0.282574 0.36354,-0.396075 l 0.16683,-0.206367 0.20756,0.118406 c 0.11415,0.06512 0.25669,0.160732 0.31675,0.212464 0.11548,0.09947 0.14798,0.355367 0.0526,0.414306 -0.0311,0.01924 -0.042,-0.02073 -0.0243,-0.0888 0.0241,-0.0921 -0.0104,-0.14002 -0.13468,-0.18728 -0.22761,-0.08654 -0.20528,-0.0958 -0.49399,0.204915 -0.31221,0.325199 -0.41348,0.366983 -0.548,0.226112 z m 17.22208,-2.175667 c -0.1397,-0.114541 -0.14154,-0.125691 -0.038,-0.2309 0.0849,-0.08634 0.12525,-0.09406 0.18408,-0.03523 0.13717,0.137175 0.2868,0.07852 0.48435,-0.189867 0.25492,-0.346315 0.29987,-0.528701 0.15622,-0.633743 -0.1515,-0.11078 -0.075,-0.301939 0.11023,-0.275402 0.31092,0.04455 0.30092,0.621984 -0.0177,1.022928 -0.33532,0.421958 -0.63811,0.539816 -0.87912,0.342208 z M 139.24581,41.3856 c -0.0188,-0.04898 -0.0249,-0.154278 -0.0136,-0.233991 0.016,-0.112591 0.0658,-0.149296 0.22333,-0.164486 0.11313,-0.01091 0.2028,-0.05491 0.2028,-0.09952 0,-0.107886 0.20446,-0.286508 0.32797,-0.286508 0.0548,0 0.16013,0.07722 0.23393,0.171595 0.0738,0.09438 0.20921,0.185908 0.30092,0.203405 0.14279,0.02725 0.16674,0.06309 0.16674,0.24959 0,0.216368 -0.002,0.217905 -0.30438,0.237125 -0.30306,0.01927 -0.30424,0.01859 -0.27099,-0.155331 0.046,-0.240434 -0.0569,-0.428662 -0.17896,-0.327384 -0.0629,0.05225 -0.0785,0.138828 -0.0511,0.284819 l 0.0394,0.20975 h -0.32089 c -0.22041,0 -0.3316,-0.02789 -0.35507,-0.08906 z m 20.94707,-0.108744 c -0.33703,-0.230418 -0.46394,-0.445289 -0.46913,-0.794296 -0.0135,-0.905685 1.11987,-1.248464 1.65289,-0.499916 0.18095,0.254124 0.19138,0.743631 0.0207,0.972619 -0.17005,0.228172 -0.4309,0.378383 -0.74257,0.427608 -0.20036,0.03165 -0.29101,0.01084 -0.46193,-0.106015 z m 0.24385,-0.462573 c 0,-0.195475 -0.14654,-0.174079 -0.17593,0.02568 -0.0133,0.08999 0.013,0.135507 0.078,0.135507 0.0637,0 0.0979,-0.05634 0.0979,-0.161194 z m 0.24959,-0.052 c 0,-0.117255 -0.0337,-0.224418 -0.0748,-0.238139 -0.0468,-0.0156 -0.0351,-0.04019 0.0312,-0.06564 0.0901,-0.03455 0.10605,0.0014 0.10605,0.23814 0,0.206252 0.0244,0.278831 0.0936,0.278831 0.0708,0 0.0936,-0.07626 0.0936,-0.311988 0,-0.235725 -0.0228,-0.311989 -0.0936,-0.311989 -0.10804,0 -0.12483,-0.09813 -0.0271,-0.158507 0.0435,-0.02689 0.0295,-0.08194 -0.0407,-0.159456 -0.12986,-0.143492 -0.27936,-0.05561 -0.25796,0.151634 0.009,0.08658 -0.0356,0.155362 -0.12685,0.195962 -0.15686,0.06978 -0.15208,0.193542 0.007,0.180093 0.0766,-0.0065 0.10248,0.04476 0.10248,0.202792 0,0.146365 0.0288,0.211459 0.0936,0.211459 0.0649,0 0.0936,-0.06529 0.0936,-0.213192 z m -23.81322,0.07782 c -0.0733,-0.03549 -0.16602,-0.136416 -0.20606,-0.224273 -0.0602,-0.132181 -0.0548,-0.176836 0.0316,-0.258832 0.0786,-0.07468 0.1115,-0.07978 0.13339,-0.0207 0.016,0.04311 0.057,0.0611 0.0912,0.03998 0.0363,-0.02244 0.0536,0.02217 0.0415,0.107269 -0.015,0.106124 0.0132,0.151322 0.10412,0.166468 0.28698,0.04781 0.31775,0.0817 0.156,0.17178 -0.18291,0.10186 -0.1795,0.101682 -0.35168,0.01831 z m 0.41952,-0.263639 c -0.0397,-0.04787 -0.0642,-0.125084 -0.0545,-0.171594 0.01,-0.04651 -0.0303,-0.08489 -0.089,-0.08529 -0.0587,-3.74e-4 -0.14071,-0.03464 -0.18217,-0.07609 -0.0589,-0.0589 -0.0429,-0.08739 0.0733,-0.130359 0.21554,-0.07973 0.36364,-0.02058 0.47171,0.188393 0.074,0.143138 0.0787,0.203437 0.0211,0.272858 -0.0928,0.111853 -0.14892,0.11234 -0.24042,0.0021 z m 26.29478,-0.60003 c -0.066,-0.106891 -0.0515,-0.502747 0.0212,-0.575421 0.0355,-0.03544 0.11,-0.04696 0.16568,-0.0256 0.14414,0.05531 0.10908,0.623062 -0.0402,0.651392 -0.0568,0.01079 -0.12285,-0.01188 -0.14664,-0.05037 z m 0.43309,-0.01873 c -0.0173,-0.045 -0.0234,-0.403004 -0.0136,-0.795571 0.0171,-0.686491 0.0231,-0.714521 0.15814,-0.733698 0.12979,-0.01843 0.14094,0.0052 0.1475,0.311989 0.0109,0.50995 -0.0154,1.199677 -0.0478,1.252083 -0.0474,0.07672 -0.2103,0.05351 -0.24419,-0.0348 z m 0.48457,0.0069 c -0.0859,-0.08591 -0.10124,-0.847669 -0.0196,-0.976424 0.0293,-0.04628 0.10611,-0.07406 0.17063,-0.06174 0.10001,0.0191 0.12004,0.0899 0.13577,0.479894 0.022,0.544308 -0.0875,0.757479 -0.28676,0.558266 z m -33.52802,-0.283909 c -0.0776,-0.09897 -0.0754,-0.101174 0.0236,-0.02356 0.0601,0.0471 0.1092,0.09624 0.1092,0.109197 0,0.05135 -0.0512,0.0183 -0.13276,-0.08564 z m 0.20651,-0.0468 c -0.0391,-0.0858 -0.1138,-0.155994 -0.16601,-0.155994 -0.0523,0 -0.0949,-0.02997 -0.0949,-0.0666 0,-0.0922 0.26161,-0.0076 0.35879,0.116028 0.089,0.113179 0.10354,0.262563 0.0256,0.262563 -0.0288,0 -0.0844,-0.0702 -0.12345,-0.155994 z m 0.30757,-0.06672 c -0.0443,-0.122494 -0.1577,-0.269909 -0.25202,-0.327588 -0.0943,-0.05768 -0.15966,-0.13997 -0.1452,-0.182869 0.0155,-0.04585 -0.0273,-0.078 -0.1037,-0.078 -0.0715,0 -0.12999,-0.02808 -0.12999,-0.0624 0,-0.09233 0.1711,-0.07589 0.41509,0.03989 0.13482,0.06398 0.20328,0.134294 0.18278,0.187734 -0.0554,0.144427 0.0778,0.395384 0.24338,0.458322 0.19647,0.0747 0.20469,0.187619 0.0136,0.187619 -0.10785,0 -0.16345,-0.0553 -0.224,-0.222717 z m 3.99796,0.02201 c -0.10904,-0.109039 -0.0916,-0.42036 0.0261,-0.465515 0.14108,-0.05414 0.20802,0.08849 0.14487,0.308672 -0.0676,0.235535 -0.0804,0.247347 -0.17092,0.156843 z m -0.4117,-0.10265 c -0.1049,-0.169733 -0.022,-0.731984 0.097,-0.658397 0.0342,0.02113 0.0475,0.0768 0.0294,0.123704 -0.018,0.04691 -0.006,0.101882 0.027,0.122166 0.0991,0.06122 0.0728,0.466299 -0.0302,0.466299 -0.0495,0 -0.10488,-0.0242 -0.12315,-0.05377 z m 0.71224,-0.13104 c 0,-0.212909 0.16192,-0.328584 0.25625,-0.183068 0.0961,0.148263 0.0354,0.335138 -0.11585,0.35662 -0.11969,0.017 -0.1404,-0.0086 -0.1404,-0.173552 z m -4.16102,0.01322 c -0.0214,-0.06006 -0.0529,-0.134594 -0.0701,-0.165636 -0.0172,-0.03104 7.4e-4,-0.0365 0.0405,-0.01212 0.11224,0.06936 0.21461,0.286954 0.13501,0.286954 -0.0366,0 -0.084,-0.04913 -0.10541,-0.109195 z m 3.09424,-0.123789 c -0.19811,-0.211048 -0.33788,-0.480384 -0.38909,-0.749779 -0.0351,-0.184552 -0.0247,-0.202793 0.11589,-0.202793 0.13408,0 0.15443,0.028 0.15443,0.21255 0,0.178819 0.019,0.207582 0.11971,0.181246 0.0658,-0.01722 0.17113,-0.0014 0.23399,0.03515 0.10534,0.06124 0.10329,0.06659 -0.0261,0.06835 -0.1434,0.0019 -0.19441,0.09829 -0.0734,0.138629 0.0369,0.01231 0.0579,0.12711 0.0468,0.255797 l -0.0202,0.233465 z m 1.47187,-0.0143 c 0.0356,-0.161922 0.0206,-0.189915 -0.12066,-0.22536 -0.0887,-0.02226 -0.19606,-0.01158 -0.23862,0.02373 -0.0537,0.04462 -0.11012,0.04025 -0.18474,-0.01432 -0.1,-0.07309 -0.0967,-0.09301 0.0469,-0.287753 0.0849,-0.115075 0.15436,-0.23284 0.15436,-0.261699 0,-0.02886 0.0459,-0.122526 0.10201,-0.208149 0.10117,-0.154398 0.10274,-0.154636 0.1908,-0.0289 0.10881,0.155341 0.0507,0.269787 -0.11087,0.218496 -0.0838,-0.02659 -0.11954,-0.0081 -0.11954,0.06182 0,0.150563 0.17638,0.187368 0.31158,0.06502 0.11051,-0.100008 0.12754,-0.100548 0.2211,-0.007 0.12692,0.126923 0.2161,0.07664 0.2161,-0.121858 0,-0.11339 0.0337,-0.152312 0.13173,-0.152312 0.11763,0 0.1272,0.02423 0.0893,0.226074 -0.0566,0.301914 -0.15377,0.445543 -0.33146,0.490141 -0.0894,0.02245 -0.17254,0.109569 -0.21171,0.221947 -0.0844,0.242045 -0.19954,0.242132 -0.14638,1.25e-4 z m 0.25873,-0.0335 c 0.0198,-0.05148 0.0644,-0.0936 0.0993,-0.0936 0.0366,0 0.0304,0.03965 -0.0143,0.0936 -0.0427,0.05148 -0.0874,0.0936 -0.0993,0.0936 -0.0119,0 -0.005,-0.04212 0.0143,-0.0936 z m -1.19755,-0.473419 c -0.0231,-0.03731 -0.0107,-0.09908 0.0275,-0.137276 0.051,-0.05099 0.0694,-0.03296 0.0694,0.06783 0,0.15066 -0.0324,0.173874 -0.097,0.06944 z m 0.26937,-0.306553 c 0.024,-0.188753 0.0442,-0.589121 0.0448,-0.889706 7.4e-4,-0.429075 0.019,-0.539699 0.0842,-0.514782 0.0457,0.01746 0.0948,0.03174 0.10919,0.03174 0.0144,0 0.0261,0.148186 0.0261,0.329303 0,0.195499 0.0391,0.385037 0.0961,0.466468 0.0902,0.128723 0.0807,0.16126 -0.15403,0.528665 l -0.25011,0.391502 z m -0.26845,-0.02083 c -0.0354,-0.0878 -0.0578,-0.09548 -0.0964,-0.033 -0.0277,0.04478 -0.0729,0.05879 -0.10052,0.03112 -0.0276,-0.02767 0.0341,-0.122819 0.13701,-0.211454 0.20679,-0.178028 0.27325,-0.107086 0.16457,0.175662 -0.0527,0.13713 -0.063,0.140839 -0.10461,0.03768 z m 10.59445,-0.460645 c 0.0944,-0.0143 0.24881,-0.0143 0.34319,0 0.0944,0.0143 0.0172,0.02599 -0.17159,0.02599 -0.18876,0 -0.26597,-0.0117 -0.1716,-0.02599 z m -11.40133,-0.139498 c -0.042,-0.06797 0.47156,-0.62698 0.57603,-0.62698 0.20379,0 0.12083,0.500492 -0.10281,0.620183 -0.15376,0.08229 -0.42416,0.08617 -0.47322,0.0068 z m 2.04167,0.01807 c -0.0429,-0.01731 -0.078,-0.08617 -0.078,-0.153027 0,-0.06685 -0.0421,-0.137716 -0.0936,-0.15747 -0.0991,-0.03804 -0.13222,-0.272156 -0.0385,-0.272156 0.0724,0 0.50644,0.48143 0.50644,0.561759 0,0.06449 -0.16033,0.07579 -0.29639,0.02089 z m 9.35966,-0.06577 c 0.0944,-0.0143 0.24881,-0.0143 0.34319,0 0.0944,0.0143 0.0172,0.02599 -0.17159,0.02599 -0.18876,0 -0.26597,-0.0117 -0.1716,-0.02599 z m -0.1404,-0.1425 c 0,-0.03432 0.0842,-0.0624 0.1872,-0.0624 0.1174,0 0.18719,-0.03205 0.18719,-0.08596 0,-0.248306 0.39329,-0.274173 0.47049,-0.03095 0.0609,0.191921 -0.0283,0.227112 -0.15384,0.06068 -0.0859,-0.113832 -0.1234,-0.128856 -0.16278,-0.06515 -0.0307,0.04956 -0.0217,0.09263 0.0223,0.107285 0.18076,0.06026 0.0457,0.138877 -0.23854,0.138877 -0.1716,0 -0.31199,-0.02808 -0.31199,-0.0624 z m 13.72751,-0.0312 c 0,-0.05148 0.0251,-0.0936 0.0557,-0.0936 0.0307,0 0.0719,0.04212 0.0916,0.0936 0.0219,0.05701 1.3e-4,0.0936 -0.0557,0.0936 -0.0504,0 -0.0916,-0.04212 -0.0916,-0.0936 z m -0.59278,-0.04162 c -0.1898,-0.104975 -0.40559,-0.314742 -0.40559,-0.394277 0,-0.03902 0.0545,-0.129417 0.12104,-0.200873 0.0666,-0.07146 0.10401,-0.146947 0.0832,-0.16776 -0.0208,-0.02081 0.009,-0.03784 0.0662,-0.03784 0.0773,0 0.104,0.05616 0.104,0.218392 0,0.199433 0.085,0.3003 0.1352,0.160356 0.0114,-0.03192 0.077,-0.01411 0.14559,0.03959 0.11205,0.08766 0.11293,0.09351 0.009,0.05735 -0.10151,-0.03522 -0.11289,-0.01274 -0.0905,0.178797 0.0279,0.239045 0.0171,0.248493 -0.16775,0.146268 z m 1.10756,-0.09358 c -0.1178,-0.04712 -0.0941,-0.158436 0.0638,-0.299602 0.17683,-0.158085 0.31186,-0.449948 0.2278,-0.492362 -0.0334,-0.01685 -0.0249,-0.02222 0.0188,-0.01192 0.0438,0.01029 0.0725,0.05031 0.064,0.08892 -0.0205,0.09215 0.0648,0.08965 0.15911,-0.0047 0.1592,-0.159194 0.0729,0.126147 -0.12791,0.422785 -0.20744,0.306469 -0.26897,0.351514 -0.40559,0.296869 z M 132.20283,37.18578 c -0.22276,-0.05642 -0.76285,-0.437845 -0.92968,-0.656575 -0.21493,-0.281784 -0.20928,-0.39987 0.0207,-0.433628 0.1668,-0.02448 0.18584,-0.009 0.2028,0.164512 0.0214,0.219602 0.22477,0.294357 0.3594,0.132142 0.10019,-0.120722 0.27604,-0.12452 0.3727,-0.008 0.0571,0.06885 0.0541,0.100098 -0.0136,0.140395 -0.0479,0.02851 -0.1033,0.116185 -0.1231,0.194834 -0.0336,0.133486 -0.0198,0.141381 0.20725,0.118676 0.1919,-0.01919 0.25069,-8.11e-4 0.27856,0.08698 0.0195,0.06122 0.0831,0.123893 0.14159,0.139277 0.0976,0.02569 0.0974,0.02857 -0.003,0.03521 -0.0601,0.004 -0.1092,0.03532 -0.1092,0.06964 0,0.06421 -0.18631,0.07185 -0.4045,0.01659 z m 0.79644,-0.126372 c 0.009,-0.06038 0.0687,-0.179716 0.13208,-0.265191 0.0665,-0.0897 0.0997,-0.109239 0.0784,-0.04621 -0.0297,0.08776 -5.6e-4,0.109196 0.14831,0.109196 0.25943,0 0.23056,0.09311 -0.0656,0.211617 -0.31134,0.124577 -0.31362,0.124504 -0.29318,-0.0094 z m 26.22714,-0.06701 c -0.0177,-0.0286 0.008,-0.052 0.0559,-0.052 0.0485,0 0.0736,0.0234 0.0559,0.052 -0.0177,0.0286 -0.0429,0.052 -0.0559,0.052 -0.0131,0 -0.0383,-0.0234 -0.0559,-0.052 z m 0.42069,-0.04429 c -0.0203,-0.05296 -0.0156,-0.116136 0.0105,-0.140395 0.0261,-0.02426 0.0601,-0.0088 0.0754,0.03428 0.0154,0.04311 0.0607,0.05878 0.10065,0.03482 0.0399,-0.02396 0.0341,0.004 -0.013,0.06201 -0.10544,0.12999 -0.12686,0.131135 -0.17362,0.0093 z m -0.70299,-0.127304 c 0.003,-0.07269 0.0178,-0.08747 0.0377,-0.0377 0.0181,0.04504 0.0158,0.09886 -0.005,0.119595 -0.0207,0.02073 -0.0354,-0.01612 -0.0328,-0.0819 z m -25.3384,-0.108719 c 0,-0.153085 -0.0206,-0.166871 -0.2496,-0.166871 -0.18026,0 -0.24958,0.026 -0.24958,0.0936 0,0.05148 -0.0218,0.0936 -0.0484,0.0936 -0.0267,0 -0.0374,-0.115917 -0.0239,-0.257594 l 0.0245,-0.257594 0.36707,0.03328 c 0.33103,0.03002 0.36707,0.02161 0.36707,-0.0856 0,-0.07492 -0.0436,-0.118878 -0.1178,-0.118878 -0.15788,0 -0.95644,-0.374943 -1.0427,-0.489572 -0.0739,-0.09817 -0.21226,-0.05026 -0.21226,0.07348 0,0.06424 -0.0995,0.129619 -0.52442,0.34444 -0.031,0.0157 -0.0373,-0.0025 -0.0138,-0.04037 0.0672,-0.108805 -0.19011,-0.209071 -0.55877,-0.217702 l -0.33811,-0.0079 v -0.255712 c 0,-0.320666 0.25501,-0.844967 0.51963,-1.068369 0.73072,-0.616884 1.85122,-0.513812 2.38345,0.219246 0.11505,0.158466 0.24284,0.408184 0.28396,0.554928 0.14731,0.525659 -0.0321,1.221751 -0.40426,1.569202 l -0.16207,0.151272 z m -1.60313,-1.168147 c 0.0601,-0.07024 0.0927,-0.154691 0.0723,-0.187672 -0.0576,-0.09324 0.13197,-0.2462 0.30517,-0.2462 0.35144,0 0.47492,-0.451097 0.16549,-0.604573 -0.20794,-0.103137 -0.3993,0.02049 -0.42501,0.274571 -0.012,0.118632 -0.10825,0.273523 -0.26519,0.426768 -0.32154,0.31397 -0.32075,0.38598 0.005,0.457576 0.0181,0.004 0.0821,-0.05023 0.14227,-0.12047 z m 0.27461,-0.597634 c -0.072,-0.07202 -0.0506,-0.252508 0.0389,-0.326723 0.11496,-0.09541 0.31226,0.05428 0.28182,0.21382 -0.0231,0.120751 -0.2374,0.196215 -0.3207,0.112903 z m 1.14132,0.50695 c 0.32603,-0.11503 0.31199,-0.115465 0.31199,0.0097 0,0.09287 0.0126,0.09189 0.1248,-0.0097 0.0686,-0.06211 0.12479,-0.146354 0.12479,-0.187193 0,-0.04084 -0.0562,-0.125077 -0.12479,-0.187194 -0.11223,-0.101564 -0.1248,-0.102539 -0.1248,-0.0097 0,0.125135 0.014,0.1247 -0.31199,0.0097 -0.40695,-0.14358 -0.43678,-0.130795 -0.43678,0.187194 0,0.317988 0.0298,0.330773 0.43678,0.187193 z m -0.22168,-0.972495 c -0.0201,-0.03251 -0.0632,-0.04266 -0.0956,-0.02257 -0.0325,0.02009 -0.0427,0.06312 -0.0225,0.09563 0.0201,0.03251 0.0632,0.04266 0.0956,0.02257 0.0325,-0.02009 0.0427,-0.06312 0.0225,-0.09563 z m 25.92137,2.230307 c 0.0383,-0.04605 0.0487,-0.106715 0.0232,-0.134799 -0.0254,-0.02809 -0.01,-0.03002 0.0348,-0.0043 0.0624,0.03602 0.0643,0.06697 0.008,0.134799 -0.0402,0.04842 -0.0871,0.08804 -0.10427,0.08804 -0.0172,0 6e-5,-0.03768 0.0383,-0.08374 z m -0.70228,-0.09195 c -0.0258,-0.04176 -0.071,-0.06107 -0.10041,-0.04289 -0.0862,0.05326 -0.0238,-0.366109 0.086,-0.578503 0.12222,-0.236346 0.42596,-0.472048 0.7364,-0.571444 0.46819,-0.149906 1.05292,0.143013 1.29861,0.650534 0.15975,0.330007 0.1315,0.468401 -0.0956,0.468401 -0.13272,0 -0.1551,-0.02223 -0.1233,-0.122438 0.0214,-0.06734 0.004,-0.186677 -0.0398,-0.26519 -0.0433,-0.07851 -0.0711,-0.192082 -0.0618,-0.252374 0.009,-0.06029 -0.0201,-0.119213 -0.0652,-0.130935 -0.0451,-0.01172 -0.1725,-0.05093 -0.28313,-0.08713 -0.14429,-0.04721 -0.2795,-0.04547 -0.47833,0.0061 -0.33008,0.08569 -0.67576,0.369309 -0.62172,0.51012 0.0204,0.05328 -0.004,0.144954 -0.0559,0.203735 -0.0512,0.05878 -0.10559,0.147607 -0.12094,0.197395 -0.0209,0.06782 -0.0397,0.07147 -0.0749,0.01458 z m 1.00977,-0.01833 c -0.0127,-0.03807 -0.012,-0.163808 0.001,-0.279418 0.0211,-0.180397 0.0405,-0.20166 0.13707,-0.149972 0.0971,0.05198 0.10332,0.09025 0.0453,0.279417 -0.0674,0.219729 -0.14064,0.279459 -0.18381,0.149973 z m 0.26227,-0.02438 c 0,-0.06218 0.0622,-0.0936 0.18523,-0.0936 0.13902,0 0.17628,0.02336 0.14932,0.0936 -0.0197,0.05148 -0.10311,0.0936 -0.18523,0.0936 -0.0911,0 -0.14932,-0.03647 -0.14932,-0.0936 z M 132.35775,36.45161 c 0,-0.05148 0.0421,-0.0936 0.0936,-0.0936 0.0514,0 0.0936,0.04212 0.0936,0.0936 0,0.05148 -0.0422,0.0936 -0.0936,0.0936 -0.0515,0 -0.0936,-0.04212 -0.0936,-0.0936 z m 26.51904,-0.155994 c 0,-0.03432 0.0281,-0.0624 0.0624,-0.0624 0.0343,0 0.0624,0.02808 0.0624,0.0624 0,0.03432 -0.0281,0.0624 -0.0624,0.0624 -0.0343,0 -0.0624,-0.02808 -0.0624,-0.0624 z m -26.95582,-0.145234 c 0,-0.01593 0.13932,-0.118349 0.30959,-0.227614 0.20986,-0.134671 0.35056,-0.18566 0.43678,-0.158295 0.12719,0.04037 0.1786,0.156756 0.0693,0.156756 -0.0318,0 -0.10293,0.045 -0.15793,0.09999 -0.0894,0.08937 -0.65769,0.200981 -0.65769,0.129159 z m 1.10508,-0.104357 c -0.0383,-0.146115 -0.036,-0.146779 0.17113,-0.05238 0.19985,0.09105 0.20482,0.177177 0.0103,0.177177 -0.0962,0 -0.16024,-0.04403 -0.18135,-0.124795 z m 26.49379,-0.09163 -0.17507,-0.154023 0.2006,-0.002 c 0.19359,-0.0019 0.38109,0.175512 0.28599,0.270614 -0.0677,0.06765 -0.13071,0.04444 -0.31152,-0.114619 z m -28.33871,-0.02632 c -0.052,-0.03299 -0.0606,-0.06852 -0.0221,-0.09228 0.0344,-0.02126 0.0786,0.0033 0.0983,0.05459 0.0413,0.107749 0.0374,0.109675 -0.0762,0.03769 z m 0.11586,-0.135323 c 0,-0.03634 0.0281,-0.04873 0.0624,-0.02752 0.0343,0.02121 0.0624,0.05095 0.0624,0.06608 0,0.01513 -0.0281,0.02752 -0.0624,0.02752 -0.0343,0 -0.0624,-0.02974 -0.0624,-0.06608 z m 10.42846,-0.437434 c -0.30107,-0.09817 -0.47236,-0.204448 -0.7059,-0.437996 -0.43713,-0.437132 -0.5792,-0.779455 -0.58036,-1.398404 -7.3e-4,-0.430146 0.0245,-0.549423 0.18314,-0.862458 0.58447,-1.15352 2.07078,-1.430128 3.03119,-0.564121 1.00664,0.907684 0.75253,2.60928 -0.47512,3.18155 -0.45778,0.213392 -0.96163,0.24163 -1.45295,0.08143 z m 0.48195,-1.067802 c 0.25837,-0.218752 0.29697,-0.363012 0.0971,-0.363012 -0.0505,0 -0.10909,0.04913 -0.13014,0.109195 -0.0525,0.150013 -0.40225,0.514781 -0.49349,0.514781 -0.0966,0 -0.17058,-0.380962 -0.15442,-0.795571 0.008,-0.199492 -0.0134,-0.327588 -0.0542,-0.327588 -0.0368,0 -0.0669,-0.02835 -0.0669,-0.06301 0,-0.0885 0.69446,-1.122547 0.7539,-1.122547 0.0268,0 0.10598,0.08032 0.17588,0.178493 l 0.12709,0.178493 -0.24764,0.09728 c -0.13621,0.05351 -0.24765,0.125958 -0.24765,0.161013 0,0.103614 0.13009,0.153172 0.20511,0.07814 0.10058,-0.100574 0.35434,-0.08521 0.39624,0.02399 0.0207,0.05406 -0.0458,0.186449 -0.15795,0.314158 -0.20558,0.234144 -0.26139,0.528378 -0.10021,0.528378 0.0515,0 0.0936,-0.04114 0.0936,-0.09142 0,-0.05028 0.0798,-0.183661 0.17732,-0.29639 0.0975,-0.11273 0.20416,-0.254487 0.23695,-0.315016 0.052,-0.09591 0.0978,-0.06585 0.35666,0.233992 0.23745,0.275044 0.27328,0.344043 0.17865,0.344043 -0.17793,0 -0.28869,0.28703 -0.19656,0.509423 0.10097,0.243776 0.44188,0.253537 0.5968,0.01709 0.0984,-0.150207 0.098,-0.173762 -0.007,-0.389985 -0.14213,-0.293994 -0.27746,-0.849404 -0.28032,-1.150489 -0.002,-0.218419 -0.0493,-0.269957 -0.21736,-0.237266 -0.0969,0.01884 -0.86668,-0.319361 -1.00259,-0.440483 -0.14296,-0.127409 -0.32094,-0.06538 -0.26095,0.09094 0.0376,0.09786 -0.67279,1.226382 -0.77194,1.226382 -0.0279,0 -0.0684,-0.02854 -0.0899,-0.06342 -0.064,-0.103509 -0.15536,-0.0038 -0.15536,0.169415 0,0.08857 -0.0464,0.194967 -0.10314,0.236442 -0.13345,0.09758 -0.0569,0.219138 0.13802,0.219138 0.12353,0 0.1531,-0.03242 0.15653,-0.171593 l 0.004,-0.171595 0.0698,0.145117 c 0.0542,0.112564 0.0511,0.156642 -0.0133,0.196495 -0.10126,0.06258 -0.0405,0.251167 0.081,0.251167 0.052,0 0.11852,0.120237 0.16405,0.296389 0.13058,0.505234 0.11635,0.49142 0.30089,0.292092 0.0931,-0.100593 0.29145,-0.28629 0.4407,-0.412661 z m 1.08244,-0.06351 c -0.2118,-0.211796 0.0373,-0.564648 0.29951,-0.424305 0.14953,0.08003 0.16193,0.265941 0.0267,0.401129 -0.11725,0.117246 -0.22456,0.12487 -0.32625,0.02318 z M 142.85371,32.8194 c -0.31058,-0.335754 -0.55765,-0.617509 -0.54904,-0.626122 0.0419,-0.04189 0.78549,0.326011 0.78549,0.388631 0,0.03967 0.0664,0.129881 0.14761,0.200469 0.13157,0.114407 0.27761,0.550514 0.20773,0.620387 -0.0149,0.0149 -0.28121,-0.24761 -0.59179,-0.583365 z m -0.32513,1.760273 c 0,-0.05148 -0.0281,-0.0936 -0.0624,-0.0936 -0.0343,0 -0.0624,0.04212 -0.0624,0.0936 0,0.05148 0.0281,0.0936 0.0624,0.0936 0.0343,0 0.0624,-0.04212 0.0624,-0.0936 z m 23.9339,-0.08653 c -0.0425,-0.06871 0.11654,-0.208552 0.17297,-0.152124 0.0225,0.02258 0.041,0.0785 0.041,0.124255 0,0.09295 -0.16086,0.113899 -0.21402,0.02786 z m -1.26167,-0.414515 c -0.0242,-0.06325 -0.0793,-0.08191 -0.16317,-0.0553 -0.10635,0.03375 -0.12088,0.01851 -0.091,-0.09555 0.0225,-0.08595 0.003,-0.148205 -0.0533,-0.169775 -0.0979,-0.03757 -0.12306,-0.207898 -0.0307,-0.207898 0.0319,0 0.0677,-0.06317 0.0795,-0.140395 0.0127,-0.08338 0.0578,-0.132272 0.11115,-0.120391 0.0494,0.011 0.12763,-0.03111 0.17396,-0.0936 0.08,-0.1079 0.0883,-0.108121 0.16526,-0.0044 0.0446,0.06006 0.12706,0.109196 0.18333,0.109196 0.057,0 0.10233,0.04983 0.10233,0.112316 0,0.06177 0.0348,0.14718 0.0775,0.189791 0.0617,0.0617 0.0587,0.08912 -0.015,0.134662 -0.0509,0.03145 -0.0928,0.107501 -0.0931,0.168996 -3.1e-4,0.06833 -0.0471,0.111912 -0.12022,0.112074 -0.0658,1.25e-4 -0.13135,0.03524 -0.1456,0.078 -0.0357,0.107347 -0.13665,0.09746 -0.18085,-0.01772 z m 0.29227,-0.345316 c 0.0512,-0.09559 0.0497,-0.151879 -0.005,-0.218393 -0.17502,-0.210899 -0.5009,-0.02021 -0.3732,0.218393 0.0379,0.07083 0.1231,0.128783 0.18933,0.128783 0.0662,0 0.15142,-0.05796 0.18932,-0.128783 z m -20.2814,-0.401598 v -0.717573 h 0.21839 c 0.16871,0 0.2184,0.02555 0.2184,0.112316 0,0.150005 0.12007,0.26207 0.28079,0.26207 0.16072,0 0.28079,-0.112065 0.28079,-0.26207 0,-0.08676 0.0497,-0.112316 0.21839,-0.112316 0.1949,0 0.21916,0.01845 0.22559,0.171593 0.0139,0.332209 0.0252,0.358957 0.15912,0.378035 0.14175,0.02019 0.23485,0.167736 0.17101,0.271022 -0.0206,0.03334 -0.10493,0.08627 -0.18739,0.11762 -0.11918,0.04531 -0.14994,0.102128 -0.14994,0.276941 v 0.219937 h -0.71757 -0.71758 z m 21.24077,0.194937 c -0.0528,-0.137762 0.0175,-0.208093 0.11278,-0.11278 0.0563,0.05628 0.0565,0.09116 7.4e-4,0.14667 -0.0555,0.05551 -0.0826,0.04745 -0.11378,-0.03389 z m -10.94514,-0.304936 c 0,-0.147116 0.037,-0.220683 0.13332,-0.26519 0.0733,-0.03388 0.13331,-0.08967 0.13331,-0.123992 0,-0.03432 -0.06,-0.09012 -0.13331,-0.123993 -0.0977,-0.04514 -0.13332,-0.117919 -0.13332,-0.272468 0,-0.188232 0.015,-0.206833 0.1404,-0.173249 0.0772,0.02069 0.17714,0.03801 0.22207,0.03848 0.045,4.99e-4 0.0663,0.02575 0.0475,0.05618 -0.0188,0.03043 0.008,0.09003 0.0587,0.132437 0.0738,0.06121 0.11206,0.06121 0.18582,0 0.0511,-0.04241 0.0795,-0.09886 0.063,-0.125448 -0.0294,-0.04751 0.3413,-0.128932 0.40915,-0.08987 0.0191,0.01099 0.0234,0.1164 0.01,0.234245 -0.0175,0.149815 -0.0554,0.211952 -0.12592,0.20658 -0.15653,-0.01192 -0.17208,0.213188 -0.0175,0.253608 0.11705,0.03061 0.17108,0.208931 0.11463,0.378286 -0.0304,0.09136 -0.31526,0.0061 -0.42263,-0.126482 -0.0929,-0.114723 -0.12386,-0.122365 -0.20911,-0.05162 -0.055,0.04567 -0.0866,0.104749 -0.0702,0.131278 0.029,0.04688 -0.17019,0.122247 -0.32757,0.123967 -0.0466,4.99e-4 -0.078,-0.08101 -0.078,-0.202744 z m 8.79808,-0.07719 c 0,-0.05199 0.0555,-0.0936 0.12479,-0.0936 0.0694,0 0.12481,0.0416 0.12481,0.0936 0,0.052 -0.0555,0.0936 -0.12481,0.0936 -0.0693,0 -0.12479,-0.0416 -0.12479,-0.0936 z m -2.98261,-0.168474 c -0.0941,-0.09405 -0.10546,-1.708391 -0.0125,-1.765855 0.0343,-0.02121 0.0624,-0.121144 0.0624,-0.222075 0,-0.141912 0.0283,-0.183511 0.12479,-0.183511 0.0967,0 0.12479,0.0416 0.12479,0.18446 v 0.184459 l 0.45239,0.01834 0.45238,0.01834 0.0181,0.779971 c 0.0259,1.120094 0.0594,1.060761 -0.59952,1.060761 -0.34296,0 -0.57592,-0.02801 -0.6228,-0.07488 z m 0.98589,-1.113657 v -0.502158 l -0.38999,0.01858 -0.38999,0.01858 -0.0188,0.399013 c -0.0262,0.556675 -0.0177,0.568152 0.42243,0.568152 h 0.37635 z m -26.90903,0.952432 c -0.37771,-0.01 -0.67077,-0.04405 -0.67077,-0.078 0,-0.03316 0.0351,-0.06284 0.078,-0.06597 0.21545,-0.0157 1.32955,0.01991 1.35299,0.04325 0.0838,0.08346 -0.16507,0.116436 -0.76021,0.100723 z m -0.67077,-0.483515 c 0,-0.08127 0.10473,-0.09299 0.69688,-0.078 0.48901,0.01238 0.70462,0.04091 0.72278,0.09564 0.0197,0.0594 -0.14646,0.078 -0.69689,0.078 -0.60773,0 -0.72277,-0.01523 -0.72277,-0.09564 z m 0,-0.334468 c 0,-0.03064 0.0382,-0.07036 0.0848,-0.08825 0.0466,-0.01789 0.10287,-0.145719 0.12499,-0.284064 0.0598,-0.373551 0.33917,-0.522578 0.7654,-0.408194 0.1473,0.03953 0.2728,0.26463 0.2728,0.489301 0,0.08051 0.0439,0.163228 0.0976,0.183817 0.0537,0.02059 0.0801,0.06571 0.0587,0.100273 -0.0483,0.07807 -1.40422,0.08495 -1.40422,0.0071 z m 0.98512,-0.225521 c 0.0299,-0.208882 -0.12906,-0.367532 -0.32024,-0.319548 -0.13023,0.03269 -0.16571,0.07918 -0.16571,0.217194 0,0.220768 0.008,0.227603 0.26,0.227603 0.16068,0 0.21207,-0.02849 0.22595,-0.125249 z m 0.69961,-0.592326 c 0,-0.06933 0.0416,-0.124795 0.0936,-0.124795 0.052,0 0.0936,0.05546 0.0936,0.124795 0,0.06933 -0.0416,0.124796 -0.0936,0.124796 -0.052,0 -0.0936,-0.05547 -0.0936,-0.124796 z m 22.24058,-0.498827 c -0.37818,-0.149952 -0.83979,-0.591753 -1.03631,-0.991841 -0.21734,-0.442446 -0.20409,-1.165757 0.0301,-1.642599 0.35124,-0.715282 1.08627,-1.147038 1.86172,-1.093577 0.51409,0.03544 0.87444,0.203743 1.25848,0.587783 0.40637,0.406374 0.56294,0.838372 0.52741,1.455141 -0.042,0.729325 -0.36716,1.249604 -0.99414,1.590851 -0.4446,0.24198 -1.16998,0.28348 -1.64723,0.09424 z m 0.5658,-0.437139 c 0,-0.0858 0.0281,-0.161766 0.0624,-0.16882 0.0343,-0.0071 0.0536,0.07016 0.0428,0.171594 -0.0175,0.165424 -10e-4,0.184322 0.15599,0.183464 0.29525,-0.0016 0.34317,-0.06886 0.29702,-0.416754 -0.0338,-0.255022 -0.023,-0.319572 0.059,-0.351016 0.0552,-0.02119 0.1004,-0.07778 0.1004,-0.125764 0,-0.113093 0.57834,-0.353716 0.74526,-0.310067 0.0996,0.02606 0.12832,0.0041 0.12832,-0.09852 0,-0.166781 -0.0206,-0.165655 -0.49478,0.027 -0.21532,0.08749 -0.42106,0.149221 -0.45721,0.137174 -0.0655,-0.02184 -0.23083,-0.496005 -0.23262,-0.66728 -5.7e-4,-0.05618 0.0767,-0.01497 0.20481,0.109197 0.25378,0.245975 0.29342,0.248189 0.29342,0.01638 0,-0.153305 0.0279,-0.186257 0.17159,-0.202793 l 0.1716,-0.01974 v -0.53038 -0.530381 l -0.71257,-0.01774 c -0.76906,-0.01915 -0.81345,-0.0022 -0.81523,0.311616 -6.5e-4,0.117136 0.0737,0.238147 0.24204,0.3939 0.19426,0.179732 0.26361,0.306933 0.34583,0.634247 0.0566,0.225184 0.0873,0.424996 0.0683,0.444026 -0.0596,0.05956 -0.7228,-0.178236 -0.84892,-0.304356 -0.12433,-0.124339 -0.16222,-0.215911 -0.0643,-0.15538 0.0307,0.01899 0.0728,-0.0097 0.0936,-0.06381 0.059,-0.153791 0.0444,-0.325106 -0.0298,-0.349858 -0.0372,-0.0124 -0.0676,-0.154916 -0.0676,-0.31672 0,-0.296078 -0.0746,-0.422247 -0.18468,-0.312202 -0.0376,0.03761 -0.0317,0.162896 0.016,0.341465 0.0695,0.259744 0.0647,0.293556 -0.0599,0.427385 -0.12516,0.134344 -0.14341,0.136442 -0.13077,0.01503 0.005,-0.04824 -0.17582,-0.131406 -0.30101,-0.138445 -0.0461,-0.0026 -0.078,0.07231 -0.078,0.182807 0,0.124796 0.0312,0.187194 0.0936,0.187194 0.0514,0 0.0936,0.02507 0.0936,0.05572 0,0.03065 -0.0421,0.07188 -0.0936,0.09164 -0.0514,0.01975 -0.0936,0.106995 -0.0936,0.193869 0,0.133904 0.0285,0.157953 0.18719,0.157953 0.1248,0 0.1872,-0.0312 0.1872,-0.0936 0,-0.05148 0.0281,-0.0936 0.0624,-0.0936 0.0343,0 0.0624,0.04454 0.0624,0.09896 0,0.07639 0.0534,0.0943 0.23399,0.07851 0.34493,-0.03015 0.82678,0.123561 0.82678,0.263737 0,0.06215 0.0281,0.130357 0.0624,0.151568 0.0725,0.04475 0.0855,0.343188 0.015,0.343188 -0.0261,0 -0.0825,-0.05616 -0.12533,-0.124796 -0.0971,-0.15557 -0.22591,-0.159039 -0.37083,-0.01 -0.0614,0.06314 -0.16141,0.132703 -0.22225,0.154578 -0.29519,0.106149 -0.12522,0.442545 0.20415,0.404037 0.12,-0.01403 0.15606,-0.05429 0.15606,-0.174239 z m 0.0936,-2.308715 c 0,-0.111996 0.0416,-0.124796 0.40558,-0.124796 0.36399,0 0.40558,0.0128 0.40558,0.124796 0,0.111996 -0.0416,0.124795 -0.40558,0.124795 -0.36399,0 -0.40558,-0.0128 -0.40558,-0.124795 z m -16.92838,2.518011 c -0.40582,-0.390705 -0.37621,-0.485027 0.15963,-0.508536 l 0.42054,-0.01845 v 0.314839 c 0,0.194032 -0.0273,0.31484 -0.0711,0.31484 -0.0391,0 -0.1023,0.04174 -0.1404,0.09276 -0.0583,0.07808 -0.11665,0.04716 -0.36865,-0.195457 z m 0.39297,-0.240494 c 0,-0.102679 -0.40235,-0.137385 -0.4626,-0.0399 -0.0542,0.08763 0.0333,0.133499 0.25461,0.133499 0.14329,0 0.20799,-0.02912 0.20799,-0.0936 z m -7.64827,0.357831 c -0.13467,-0.09221 -0.14292,-0.252604 -0.0188,-0.364945 0.13964,-0.126381 0.31891,-0.06295 0.35608,0.125995 0.0391,0.198868 -0.17467,0.350313 -0.3373,0.23895 z m 15.89463,-0.32663 c 0,-0.0858 0.0142,-0.120895 0.0315,-0.078 0.0173,0.0429 0.0173,0.113096 0,0.155995 -0.0173,0.0429 -0.0315,0.0078 -0.0315,-0.078 z m 0.27093,-0.124795 c -0.0212,-0.03432 -0.0931,-0.0624 -0.15967,-0.0624 -0.12639,0 -0.16131,-0.152041 -0.0685,-0.298268 0.0406,-0.06395 0.0871,-0.06092 0.23303,0.01521 0.1003,0.0523 0.15694,0.09526 0.12589,0.09548 -0.031,1.87e-4 -0.01,0.0518 0.0469,0.114644 0.0569,0.06284 0.0846,0.13304 0.0617,0.155995 -0.0621,0.06202 -0.19534,0.05051 -0.23933,-0.02066 z m -17.03254,-0.183899 c -0.0548,-0.08877 0.0151,-0.190487 0.13102,-0.190487 0.0547,0 0.086,0.04384 0.0743,0.104025 -0.0243,0.125324 -0.14889,0.177784 -0.20533,0.08646 z m 11.55714,0.01609 c -0.15207,-0.03974 -0.13914,-0.07534 0.14217,-0.39151 0.1363,-0.153192 0.24782,-0.340719 0.24782,-0.416729 0,-0.156498 0.15172,-0.334305 0.28524,-0.334305 0.11568,0 0.33873,0.223662 0.33873,0.339649 0,0.113943 -0.23907,0.284328 -0.39895,0.284328 -0.16095,0 -0.35011,0.176204 -0.30773,0.286653 0.0185,0.04825 0.003,0.08773 -0.0354,0.08773 -0.038,0 -0.069,0.04212 -0.069,0.0936 0,0.09601 -0.0148,0.0997 -0.2028,0.05059 z m 0.84785,-0.716592 c 0.0927,-0.147018 0.003,-0.301156 -0.17512,-0.301156 -0.0869,0 -0.15795,0.01174 -0.15795,0.0261 0,0.01435 -0.0156,0.06689 -0.0348,0.11675 -0.0396,0.103301 0.14016,0.310813 0.24036,0.277411 0.0365,-0.01215 0.0938,-0.06575 0.12749,-0.1191 z m -6.97937,0.321298 c -0.0608,-0.09836 0.0269,-0.411766 0.16396,-0.586005 0.0677,-0.08613 0.21352,-0.173551 0.32392,-0.194264 0.40055,-0.07514 0.69809,0.163489 0.77204,0.619197 l 0.0365,0.224992 h -0.62846 c -0.36165,0 -0.64523,-0.02714 -0.66797,-0.06392 z m 0.7078,-0.460799 c -0.0113,-0.09104 -0.0486,-0.171683 -0.0829,-0.179195 -0.075,-0.01641 -0.11885,0.23612 -0.0653,0.375698 0.0584,0.152228 0.17257,8.11e-4 0.14816,-0.196503 z m -0.30127,-0.536042 c -0.15018,-0.150186 -0.15604,-0.239619 -0.0276,-0.4229 0.11781,-0.168198 0.34557,-0.179714 0.48597,-0.02457 0.1438,0.158897 0.12881,0.360109 -0.0354,0.475131 -0.18328,0.128375 -0.27271,0.122525 -0.4229,-0.02766 z m 7.96224,-0.800612 c -0.0195,-0.03151 -0.0307,-0.334589 -0.025,-0.673504 0.006,-0.338914 0.0212,-0.538991 0.0342,-0.444614 0.0145,0.104907 0.0646,0.175026 0.12879,0.180427 0.28416,0.02389 0.43181,0.0187 0.59109,-0.02078 l 0.17406,-0.04315 -0.018,0.511132 -0.0181,0.511132 -0.41582,0.01833 c -0.2287,0.01008 -0.43175,-0.0075 -0.45122,-0.03897 z m 0.27426,-0.22895 c 0,-0.05148 -0.0422,-0.0936 -0.0936,-0.0936 -0.0515,0 -0.0936,0.04212 -0.0936,0.0936 0,0.05148 0.0421,0.0936 0.0936,0.0936 0.0514,0 0.0936,-0.04212 0.0936,-0.0936 z m 0.24959,-0.0052 c 0,-0.11019 -0.13433,-0.091 -0.17289,0.0247 -0.0136,0.04076 0.0197,0.0741 0.0741,0.0741 0.0543,-1e-6 0.0988,-0.04446 0.0988,-0.0988 z m 0.2496,0.0052 c 0,-0.05148 -0.0264,-0.0936 -0.0587,-0.0936 -0.0787,0 -0.13504,0.09744 -0.0852,0.147291 0.0702,0.07027 0.1439,0.0428 0.1439,-0.0537 z m -0.51167,-0.374387 c 0,-0.247603 -0.14351,-0.305514 -0.18745,-0.07564 -0.0356,0.186153 0.003,0.294034 0.10529,0.294034 0.0523,0 0.0822,-0.07938 0.0822,-0.218392 z m 0.26207,0.119596 c 0,-0.05434 -0.0333,-0.08768 -0.0741,-0.0741 -0.1157,0.03857 -0.13489,0.172894 -0.0247,0.172894 0.0543,0 0.0988,-0.04445 0.0988,-0.0988 z m 0.27812,0.04071 c 0.0461,-0.07467 -0.0713,-0.148646 -0.15434,-0.09728 -0.0698,0.04313 -0.024,0.155365 0.0634,0.155365 0.0303,0 0.0712,-0.02614 0.0909,-0.05809 z m -0.27812,-0.290301 c 0,-0.11019 -0.13433,-0.091 -0.17289,0.0247 -0.0136,0.04075 0.0197,0.0741 0.0741,0.0741 0.0543,0 0.0988,-0.04445 0.0988,-0.0988 z m 0.29769,-0.0143 c 0.0138,-0.04139 -0.0326,-0.0741 -0.10529,-0.0741 -0.12962,0 -0.16848,0.06552 -0.0871,0.146895 0.0578,0.05781 0.162,0.01839 0.19239,-0.0728 z m 3.50858,0.306362 c -0.81079,-0.172878 -1.37276,-0.880214 -1.37276,-1.727864 0,-1.34377 1.51598,-2.151013 2.65222,-1.412277 0.30131,0.195896 0.60566,0.574516 0.70856,0.881462 0.0999,0.298055 0.0884,0.806897 -0.0259,1.142255 -0.25827,0.757998 -1.18096,1.28299 -1.96214,1.116424 z m -0.31164,-0.524537 c 1.8e-4,-0.04087 0.0296,-0.179644 0.0654,-0.308381 l 0.065,-0.234066 0.18114,0.09367 c 0.52507,0.271524 1.16678,-0.152461 1.14344,-0.755487 -0.013,-0.337754 -0.17146,-0.57603 -0.47248,-0.7108 -0.59098,-0.264592 -1.24303,0.204637 -1.14409,0.823323 0.0214,0.133598 0.069,0.291101 0.10572,0.350007 0.0447,0.0715 0.0475,0.179493 0.008,0.324863 l -0.0584,0.21776 -0.20132,-0.421184 c -0.11073,-0.231652 -0.22737,-0.421185 -0.2592,-0.421185 -0.0994,0 -0.066,0.106629 0.20375,0.650499 0.2335,0.470825 0.36167,0.608988 0.36269,0.39098 z m 0.44244,-0.621214 c -0.0825,-0.04239 -0.20726,-0.15424 -0.27728,-0.24855 -0.12584,-0.169497 -0.1259,-0.172528 -0.006,-0.263206 0.10967,-0.08295 0.11082,-0.09192 0.0121,-0.09372 -0.1263,-0.0023 -0.13265,-0.02876 -0.0458,-0.190956 0.0379,-0.07078 0.10168,-0.103661 0.15869,-0.08179 0.0524,0.02012 0.0805,0.0514 0.0624,0.0695 -0.0181,0.01811 0.01,0.06433 0.0625,0.102714 0.0855,0.06252 0.085,0.09476 -0.004,0.309304 -0.12689,0.303685 -0.0764,0.355887 0.14187,0.146769 l 0.17094,-0.16375 0.14884,0.154661 c 0.0819,0.08506 0.13801,0.164015 0.12479,0.175447 -0.0132,0.01143 -0.0866,0.05331 -0.16303,0.09308 -0.11682,0.06076 -0.13317,0.05713 -0.10251,-0.02275 0.0239,-0.06234 -3.3e-4,-0.09504 -0.0705,-0.09504 -0.0694,0 -0.0943,0.03283 -0.071,0.0936 0.0429,0.111832 0.0469,0.111419 -0.14135,0.01468 z m 0.49932,-0.32824 c -0.13551,-0.131445 -0.14244,-0.163211 -0.0724,-0.332142 0.0425,-0.102738 0.0679,-0.233986 0.0562,-0.291662 -0.0182,-0.09027 -0.0438,-0.08384 -0.1838,0.04622 l -0.16268,0.151085 -0.16749,-0.133557 -0.1675,-0.133557 0.16151,-0.0736 c 0.2092,-0.09532 0.22169,-0.09328 0.17495,0.02852 -0.0272,0.07077 -0.0122,0.09232 0.0488,0.0702 0.0483,-0.01756 0.0815,-0.06185 0.0735,-0.09844 -0.0297,-0.137409 0.33392,0.05646 0.43876,0.233927 0.12423,0.210301 0.13162,0.259476 0.0358,0.238183 -0.0386,-0.0086 -0.0831,0.0195 -0.0988,0.0624 -0.0157,0.0429 0.0158,0.078 0.0702,0.078 0.11897,0 0.12587,0.06644 0.0208,0.200356 -0.0702,0.08939 -0.0931,0.08476 -0.22783,-0.04594 z m -0.98892,-0.805413 c 0.44229,-0.480359 0.56205,-0.660898 0.43679,-0.658446 -0.0798,0.0015 -1.07335,1.104454 -1.0321,1.145706 0.0715,0.07152 0.10928,0.04062 0.59531,-0.48726 z m 1.66915,-0.333876 c 0,-0.02689 -0.21059,-0.151163 -0.46798,-0.276151 -0.32701,-0.158792 -0.46799,-0.201518 -0.46799,-0.141831 0,0.04698 0.17549,0.170532 0.38998,0.274556 0.39616,0.192128 0.54599,0.231487 0.54599,0.143426 z m -4.82124,1.86406 c -0.0273,-0.104231 -0.096,-0.127698 -0.42911,-0.146447 l -0.39665,-0.02232 0.41698,-0.01202 c 0.37277,-0.01075 0.42134,0.0017 0.45808,0.117475 0.0226,0.07122 0.0281,0.142535 0.0122,0.158469 -0.0159,0.01593 -0.0436,-0.02689 -0.0614,-0.09515 z m -7.5745,-0.351811 c -0.0214,-0.05591 0.0122,-0.133217 0.08,-0.183539 0.0933,-0.06929 0.10299,-0.109858 0.0479,-0.199794 -0.1132,-0.184932 -0.2741,-0.179456 -0.2741,0.0093 0,0.182516 -0.15662,0.277108 -0.26938,0.162696 -0.0569,-0.05775 -0.0488,-0.09334 0.0354,-0.155559 0.0601,-0.04437 0.10919,-0.136079 0.10919,-0.203792 0,-0.194776 0.0609,-0.209573 0.31972,-0.07758 0.21647,0.110432 0.24186,0.148159 0.24186,0.359234 0,0.318709 -0.20206,0.519675 -0.29057,0.289003 z m 5.76081,-1.009691 c -0.0183,-0.02971 -0.008,-0.09481 0.0239,-0.144648 0.0845,-0.133507 0.0729,-0.171466 -0.0656,-0.215413 -0.1778,-0.05643 -0.15444,-0.155994 0.0366,-0.155994 0.12216,0 0.17865,-0.04566 0.23229,-0.187762 0.0826,-0.218831 0.16671,-0.212601 0.28048,0.02078 0.0629,0.129048 0.1267,0.16708 0.28079,0.167397 l 0.19938,4.37e-4 -0.15599,0.108785 c -0.0858,0.05983 -0.156,0.164943 -0.156,0.233581 0,0.100057 -0.0433,0.125802 -0.21839,0.129875 -0.12012,0.0028 -0.26469,0.02577 -0.32128,0.05105 -0.0566,0.02529 -0.11791,0.02166 -0.13627,-0.0081 z"
       id="path11533" />
    <path
       sodipodi:type="star"
       style="fill:#008000"
       id="path11711"
       inkscape:flatsided="false"
       sodipodi:sides="5"
       sodipodi:cx="-1672.8501"
       sodipodi:cy="-208.30263"
       sodipodi:r1="422.06592"
       sodipodi:r2="211.03297"
       sodipodi:arg1="0.3256041"
       sodipodi:arg2="0.95392263"
       inkscape:rounded="0"
       inkscape:randomized="0"
       d="m -1272.9605,-73.291674 -277.8096,37.126738 -126.9104,249.900586 -121.1575,-252.739806 -276.887,-43.475426 202.9301,-193.328528 -44.2152,-276.76988 246.5752,133.25621 249.5605,-127.57777 -50.5382,275.68539 z"
       transform="matrix(0.05353429,0,0,0.05353429,188.58002,56.675715)"
       inkscape:transform-center-x="0.079913161"
       inkscape:transform-center-y="2.0814919" />
  </g>
</svg>
