<?xml version="1.0" encoding="UTF-8" standalone="no"?>
<!-- Created with Inkscape (http://www.inkscape.org/) -->

<svg
   width="210mm"
   height="297mm"
   viewBox="0 0 210 297"
   version="1.1"
   id="svg11928"
   inkscape:version="1.1.2 (b8e25be833, 2022-02-05)"
   sodipodi:docname="a2.svg"
   xmlns:inkscape="http://www.inkscape.org/namespaces/inkscape"
   xmlns:sodipodi="http://sodipodi.sourceforge.net/DTD/sodipodi-0.dtd"
   xmlns="http://www.w3.org/2000/svg"
   xmlns:svg="http://www.w3.org/2000/svg">
  <sodipodi:namedview
     id="namedview11930"
     pagecolor="#ffffff"
     bordercolor="#666666"
     borderopacity="1.0"
     inkscape:pageshadow="2"
     inkscape:pageopacity="0.0"
     inkscape:pagecheckerboard="0"
     inkscape:document-units="mm"
     showgrid="false"
     inkscape:zoom="0.77771465"
     inkscape:cx="55.290202"
     inkscape:cy="555.47366"
     inkscape:window-width="3840"
     inkscape:window-height="2054"
     inkscape:window-x="-11"
     inkscape:window-y="-11"
     inkscape:window-maximized="1"
     inkscape:current-layer="layer1" />
  <defs
     id="defs11925">
    <rect
       x="-1665.1352"
       y="-147.86915"
       width="763.77628"
       height="396.03215"
       id="rect18580" />
    <rect
       x="-1424.6871"
       y="104.15131"
       width="682.76971"
       height="333.02703"
       id="rect14812" />
  </defs>
  <g
     inkscape:label="圖層 1"
     inkscape:groupmode="layer"
     id="layer1">
    <path
       style="fill:#000080;stroke-width:0.277372"
       d="m 115.22653,285.21118 c 0.06,-0.9594 0.19591,-1.88501 0.30238,-2.05687 0.14054,-0.22736 6.61448,-0.32138 23.76792,-0.3455 l 23.57472,-0.0331 v 2.08982 2.08986 H 138.99454 115.1175 Z m -110.2916758,0.1235 c -0.0796,-0.12875 -0.11794,-29.96456 -0.0858,-66.30209 0.0521,-58.38266 0.10713,-66.09884 0.4749,-66.33124 0.2552,-0.16119 11.5424798,-0.26471 29.1934398,-0.26733 l 28.77736,-0.003 v 66.56935 66.56935 h -29.10771 c -16.00924,0 -29.1727698,-0.10516 -29.2522498,-0.23391 z M 36.985964,269.37786 c 3.31988,-1.60186 4.74077,-5.58226 3.1852,-8.92285 -1.89539,-4.07033 -7.14827,-5.14707 -10.46996,-2.14614 -1.5864,1.43324 -2.25651,2.88862 -2.26536,4.92007 -0.0131,2.81763 1.32467,4.98052 3.81113,6.16553 1.65385,0.78818 4.08566,0.78114 5.73899,-0.0164 z m 13.77225,-67.22902 0.0839,-1.4562 h -16.65682 -16.65685 v 1.36375 c 0,0.82983 0.13563,1.41971 0.34674,1.50669 0.19066,0.0786 7.64853,0.12023 16.57298,0.0924 l 16.22628,-0.0505 z m 0.0547,-16.71169 v -1.38685 h -16.64234 -16.64233 v 1.38685 1.38685 h 16.64233 16.64234 z m 0,-16.78101 v -1.52556 h -16.64234 -16.64233 v 1.0868 c 0,0.59774 -0.0757,1.28424 -0.16839,1.52555 -0.15234,0.3971 1.42714,0.43873 16.64234,0.43873 h 16.81069 z m 14.03457,116.67913 c -0.26077,-0.42182 -0.1602,-132.87632 0.1009,-133.0377 0.13727,-0.0849 5.28221,1.29719 11.43296,3.0713 6.15079,1.77411 13.18031,3.78813 15.62119,4.47561 2.44089,0.68748 5.49892,1.55973 6.79561,1.93837 2.721906,0.79481 6.875116,1.98332 10.262786,2.93692 1.29672,0.36501 3.04417,0.86753 3.8832,1.11674 0.83906,0.2493 3.46023,0.9931 5.82482,1.65312 l 4.29929,1.20009 0.0783,3.10363 0.0783,3.10366 H 97.962274 72.699694 l -0.68083,0.68083 -0.68083,0.6808 -0.01,25.04547 c -0.0229,53.01247 0.0295,64.3665 0.30663,64.88248 0.15136,0.28273 0.55238,0.58324 0.89122,0.66776 0.33884,0.0845 11.84967,0.17953 25.5796,0.2113 l 24.963506,0.0577 0.074,7.14235 0.074,7.14235 h -4.85871 -4.85867 v 2.08029 2.08029 H 89.245894 c -13.33952,0 -24.31858,-0.10483 -24.39786,-0.23325 z m 63.201236,-4.27557 c -0.075,-0.19525 -0.10287,-3.53542 -0.0619,-7.42294 l 0.0744,-7.06821 11.03007,-0.0724 11.03011,-0.0724 -0.074,7.4229 -0.074,7.42288 -10.89431,0.0727 c -8.64354,0.0577 -10.92246,-8.2e-4 -11.03047,-0.28207 z m -53.797846,-16.57145 -0.83212,-0.41605 -0.13857,-18.02919 c -0.0763,-9.91609 -0.0763,-29.30408 0,-43.08449 0.13497,-24.39777 0.15266,-25.06559 0.67709,-25.44889 0.46133,-0.33727 9.78474,-0.39365 65.102336,-0.39365 h 64.56394 l 0.56208,0.60335 c 0.30926,0.33183 0.63083,0.98714 0.71483,1.45621 0.0839,0.46906 0.11663,19.66465 0.0727,42.65686 -0.076,39.70105 -0.10483,41.82891 -0.57521,42.29926 -0.47182,0.47181 -3.54767,0.50185 -64.90511,0.63398 -56.884956,0.12252 -64.507046,0.0901 -65.241966,-0.27748 z m 66.571056,-3.12086 c 0.48315,-0.4156 0.77714,-1.00558 0.87883,-1.7636 0.13137,-0.98019 0.041,-1.26416 -0.64886,-2.03619 -0.6153,-0.68869 -1.04132,-0.90396 -1.83311,-0.9264 -1.84992,-0.0524 -3.28581,1.57902 -2.86507,3.25534 0.49796,1.98401 2.93786,2.78717 4.46821,1.47085 z m 58.66253,-43.2003 V 182.66342 H 139.01731 78.550164 v 35.50364 35.50368 h 60.467146 60.46715 z"
       id="path12235" />
    <ellipse
       style="fill:#008000;stroke-width:0.264583"
       id="path12651"
       cx="34.19072"
       cy="263.65979"
       rx="6.9742265"
       ry="7.1443295" />
    <rect
       style="fill:#ff0000;stroke-width:0.264583"
       id="rect12871"
       width="46.948456"
       height="14.969071"
       x="10.206193"
       y="161.59795" />
    <text
       xml:space="preserve"
       transform="scale(0.26458333)"
       id="text14810"
       style="font-style:normal;font-weight:normal;font-size:40px;line-height:1.25;font-family:sans-serif;white-space:pre;shape-inside:url(#rect14812);fill:#000000;fill-opacity:1;stroke:none" />
    <text
       xml:space="preserve"
       transform="matrix(0.22058674,0,0,0.22058674,450.99748,222.8702)"
       id="text18578"
       style="font-style:normal;font-weight:normal;font-size:40px;line-height:1.25;font-family:sans-serif;white-space:pre;shape-inside:url(#rect18580);fill:#008000;fill-opacity:1;stroke:none"><tspan
         x="-1665.1348"
         y="-111.37593"
         id="tspan23294">for i in range(3):
</tspan><tspan
         x="-1665.1348"
         y="-61.375928"
         id="tspan23296">       print(i)
</tspan><tspan
         x="-1665.1348"
         y="-11.375928"
         id="tspan23298">
</tspan><tspan
         x="-1665.1348"
         y="38.624072"
         id="tspan23300">
</tspan><tspan
         x="-1665.1348"
         y="88.624072"
         id="tspan23302">
</tspan><tspan
         x="-1665.1348"
         y="138.62407"
         id="tspan23304">
</tspan></text>
    <path
       style="fill:#808000;stroke-width:0.165899"
       d="m 169.05061,246.25874 c -0.74706,-2.31466 -0.95169,-3.14172 -0.80046,-3.23518 0.43528,-0.26902 1.49219,-0.34884 1.63164,-0.12322 0.075,0.12136 0.52523,1.37994 1.00052,2.79685 0.4753,1.41692 0.89649,2.66579 0.93601,2.77528 0.0652,0.18086 -0.5005,0.49485 -1.4143,0.78487 -0.32596,0.10347 -0.4181,-0.10068 -1.35341,-2.9986 z m 9.69524,1.99462 c -1.00369,-0.41545 -2.10824,-0.87351 -2.45457,-1.01791 -0.59371,-0.24756 -0.72636,-0.23964 -2.32258,0.13885 -0.9311,0.22077 -1.76058,0.4014 -1.8433,0.4014 -0.0827,0 -0.46399,-0.98527 -0.84727,-2.1895 -0.60974,-1.91566 -0.66354,-2.20276 -0.43026,-2.29548 2.62016,-1.0415 4.78552,-1.7322 5.43745,-1.73443 0.29717,-10e-4 1.52306,0.45578 2.82029,1.05093 1.96746,0.90263 2.51656,1.08088 3.85121,1.2502 2.03513,0.25817 2.49987,0.49922 2.5054,1.29954 0.004,0.60612 -0.55135,0.76882 -2.22755,0.65235 -0.82645,-0.0574 -2.21185,-0.25727 -3.07868,-0.44411 -2.33991,-0.50435 -2.76447,-0.56425 -2.57143,-0.36285 0.2107,0.21985 3.53116,0.95629 5.43005,1.20433 1.30569,0.17055 1.51013,0.15909 2.07374,-0.11628 0.44289,-0.21638 0.67144,-0.46234 0.7836,-0.84329 0.13762,-0.46741 0.3198,-0.60503 1.39162,-1.05123 2.3242,-0.96756 3.58286,-0.81821 3.238,0.38423 -0.1415,0.49341 -0.37242,0.63222 -3.29955,1.98348 -3.84936,1.77699 -5.56405,2.45811 -6.16971,2.45075 -0.25387,-0.004 -1.28277,-0.34553 -2.28646,-0.76098 z m 1.47103,-7.49057 c -0.70082,-0.56769 -0.90949,-1.44103 -0.53873,-2.25475 0.16664,-0.36575 0.0722,-0.58048 -0.91846,-2.08765 -0.60731,-0.924 -1.05264,-1.76342 -0.98961,-1.8654 0.0654,-0.10581 0.0401,-0.13939 -0.0589,-0.0782 -0.21917,0.13544 -3.40421,-4.82989 -3.25403,-5.07288 0.0602,-0.0975 0.0353,-0.13137 -0.0553,-0.0754 -0.21598,0.13349 -0.78152,-0.8964 -1.11472,-2.02999 -0.22045,-0.75003 -0.26485,-1.87991 -0.26485,-6.74013 0,-4.81496 -0.0436,-5.9435 -0.24885,-6.43461 -0.31345,-0.7502 -0.31318,-1.22551 0.001,-1.82797 0.20319,-0.38954 0.24786,-1.33934 0.24786,-5.26948 v -4.79428 l -0.83639,-0.83199 c -0.47746,-0.47496 -0.78683,-0.9122 -0.72091,-1.01886 0.0671,-0.10861 0.0414,-0.14105 -0.0615,-0.0775 -0.23631,0.14606 -1.25913,-1.1578 -1.10451,-1.40799 0.067,-0.10842 0.0489,-0.15041 -0.0409,-0.0949 -0.2092,0.1293 -0.63563,-0.6041 -0.87839,-1.51071 -0.42382,-1.58283 0.70912,-2.89883 2.2472,-2.61029 0.60848,0.11416 1.41493,0.84261 1.29083,1.16599 -0.14138,0.36845 0.40887,0.19896 0.61707,-0.19006 0.11394,-0.21291 0.28994,-0.3871 0.39111,-0.3871 0.10117,0 0.31179,-0.14931 0.46804,-0.3318 0.35174,-0.4108 1.5718,-0.47031 1.72008,-0.0839 0.0523,0.13634 0.15623,0.21012 0.23095,0.16395 0.2835,-0.17522 0.8248,0.87989 0.82317,1.60455 -0.001,0.66149 -0.66926,2.46287 -0.91298,2.46287 -0.0552,0 -0.0471,-0.0862 0.018,-0.19153 0.0739,-0.11962 0.0455,-0.14645 -0.0759,-0.0715 -0.10683,0.066 -0.14837,0.19424 -0.0923,0.28493 0.13588,0.21985 -0.42624,0.82843 -0.64199,0.69509 -0.10165,-0.0628 -0.11811,-0.0218 -0.0412,0.10273 0.15465,0.25023 -1.37664,1.87121 -1.62354,1.71862 -0.09,-0.0557 -0.11356,-0.0201 -0.0523,0.0789 0.0612,0.099 0.0354,0.22696 -0.0573,0.28427 -0.10758,0.0665 -0.1686,1.75193 -0.1686,4.65664 0,2.92436 -0.0593,4.55243 -0.1659,4.55243 -0.0912,0 -0.16589,0.0812 -0.16589,0.18048 0,0.11795 0.2247,0.14252 0.64854,0.0709 0.62412,-0.10544 1.67005,0.23199 1.67658,0.54089 0.001,0.0661 0.0715,0.22926 0.15589,0.36261 0.12593,0.19909 0.24163,0.15008 0.64695,-0.27404 0.65783,-0.68836 1.36318,-0.83545 2.05861,-0.4293 1.50391,0.87833 1.1635,2.51211 -1.04583,5.01933 l -1.15456,1.31023 v 4.99149 c 0,5.64243 -0.0645,5.2688 1.47663,8.55003 0.47143,1.00369 1.28894,2.75802 1.81671,3.89852 1.6193,3.49929 1.51773,4.24411 1.51773,-11.12841 V 210.9781 l -0.83646,-0.88444 c -1.44364,-1.52643 -1.86166,-2.96742 -1.07517,-3.70629 0.56308,-0.52898 1.37687,-0.49473 1.87015,0.0787 l 0.37327,0.43393 0.37327,-0.43393 c 0.4933,-0.57344 1.30709,-0.60769 1.87017,-0.0787 0.80169,0.75315 0.38478,2.12624 -1.15368,3.79971 l -0.93014,1.01176 0.0103,13.09867 c 0.006,7.20427 0.0711,13.13622 0.14531,13.18211 0.15269,0.0944 2.4131,-7.34047 2.61964,-8.6165 0.0738,-0.45622 0.11141,-7.82675 0.0835,-16.37895 l -0.0508,-15.54946 -1.35933,-1.47906 c -1.85401,-2.01732 -2.45496,-3.04803 -2.55011,-4.37384 -0.0597,-0.83209 -0.0103,-1.14083 0.24819,-1.55003 0.34326,-0.54343 1.25179,-1.06506 1.85503,-1.06506 0.63745,0 1.44004,0.49622 1.75824,1.08708 0.1694,0.31455 0.3487,0.57191 0.39844,0.57191 0.0498,0 0.22687,-0.25332 0.3936,-0.56293 0.85046,-1.57919 3.22006,-1.29744 3.81896,0.45408 0.47981,1.4032 -0.24709,2.99532 -2.46755,5.40468 l -1.41321,1.53343 -0.003,15.62228 c -0.003,12.63825 -0.0466,15.82825 -0.23169,16.70062 -0.12585,0.59309 -0.72178,2.69295 -1.32431,4.66636 -0.60253,1.97341 -1.0955,3.6718 -1.0955,3.7742 0,0.40767 0.44707,0.13015 1.05021,-0.65192 0.35212,-0.45657 0.71491,-0.77487 0.81365,-0.71385 0.098,0.0606 0.13487,0.0401 0.0819,-0.0456 -0.053,-0.0857 0.11977,-0.40322 0.38383,-0.70566 4.21201,-4.82422 5.20593,-5.90663 5.3749,-5.85345 0.0966,0.0304 0.12231,0.002 0.0571,-0.0634 -0.0652,-0.0652 0.1397,-0.42044 0.45543,-0.78931 0.31574,-0.36887 0.7424,-1.01227 0.94813,-1.42975 l 0.37408,-0.75909 0.0448,-11.42598 c 0.0329,-8.38309 -0.006,-11.48683 -0.14473,-11.65441 -0.1437,-0.17313 -0.13447,-0.29869 0.0382,-0.51874 0.20644,-0.26323 0.20055,-0.26904 -0.0632,-0.0622 -0.25898,0.20312 -0.36281,0.1486 -0.94762,-0.4977 -0.36123,-0.3992 -0.62609,-0.81533 -0.58858,-0.92475 0.0405,-0.11803 -0.0303,-0.16111 -0.17407,-0.10594 -0.17737,0.068 -0.21201,0.014 -0.12926,-0.20157 0.0716,-0.18663 0.0491,-0.25499 -0.0616,-0.18662 -0.21451,0.13259 -0.87715,-1.35063 -0.87715,-1.96337 0,-0.26315 0.19373,-0.63195 0.48493,-0.92316 0.6424,-0.6424 1.45043,-0.66102 2.06388,-0.0476 0.24055,0.24056 0.43737,0.4995 0.43737,0.57545 0,0.0759 0.11198,0.0951 0.24885,0.0426 0.13687,-0.0525 0.24885,-0.19525 0.24885,-0.31718 0,-0.32761 0.66971,-0.73821 1.20404,-0.73821 1.31009,0 1.93286,1.39958 1.21309,2.72627 -0.56402,1.03964 -1.12083,1.75349 -1.28741,1.65054 -0.10333,-0.0639 -0.13973,-0.0405 -0.0821,0.0527 0.13303,0.21526 -0.6123,0.92329 -0.79618,0.75634 -0.0763,-0.0693 -0.0902,-0.0411 -0.031,0.0626 0.10358,0.18132 -0.26292,0.62611 -0.40158,0.48736 -0.0373,-0.0373 -0.048,5.1612 -0.024,11.55211 l 0.0437,11.61983 -0.50334,1.06533 c -0.3184,0.67391 -0.57247,1.02262 -0.69147,0.94908 -0.11025,-0.0682 -0.14256,-0.0426 -0.078,0.0619 0.12286,0.1988 -1.68914,2.36193 -2.33061,2.78224 -0.22625,0.14824 -0.37311,0.30779 -0.32637,0.35453 0.14452,0.14452 -0.75606,1.04696 -0.93465,0.93659 -0.0925,-0.0571 -0.12219,-0.0295 -0.0659,0.0615 0.1223,0.19788 -1.51401,2.08065 -1.70546,1.96232 -0.0731,-0.0452 -0.12274,0.0477 -0.11023,0.20636 0.0125,0.15869 -0.0706,0.26986 -0.18463,0.24706 -0.11405,-0.0229 -0.18897,0.0145 -0.16648,0.0829 0.0691,0.21035 -0.89758,1.37145 -1.05885,1.27178 -0.0834,-0.0515 -0.13104,-0.0228 -0.10597,0.064 0.0251,0.0867 -0.22699,0.45432 -0.56015,0.81688 -0.57874,0.62985 -0.59796,0.6883 -0.43148,1.31203 0.21342,0.79958 -0.1566,1.73374 -0.80348,2.02847 -0.60585,0.27604 -1.59047,0.22421 -1.99704,-0.10512 z m -2.47799,-7.79236 c -2.21683,-4.77214 -2.06217,-4.02803 -2.06217,-9.92128 v -5.07582 l -1.02921,-1.14954 c -0.56607,-0.63225 -1.06998,-1.1496 -1.11982,-1.14968 -0.1942,-3.4e-4 0.0736,11.52403 0.27854,11.9849 0.1112,0.25013 0.17919,0.54875 0.15108,0.6636 -0.0281,0.11484 -0.0187,0.14967 0.0208,0.0774 0.0396,-0.0723 0.29003,0.21251 0.55662,0.63286 0.26657,0.42036 0.43441,0.84565 0.37295,0.94509 -0.0653,0.10571 -0.0351,0.13344 0.0727,0.0668 0.10719,-0.0662 0.29467,0.0991 0.44754,0.39473 0.1447,0.27981 0.63931,1.06326 1.09915,1.74099 0.45984,0.67773 0.78701,1.31161 0.72705,1.40863 -0.06,0.097 -0.0244,0.15588 0.0789,0.1308 0.2259,-0.0548 1.63056,2.13771 1.67137,2.60881 0.0243,0.28084 0.0404,0.28739 0.10438,0.0427 0.0416,-0.15901 -0.57487,-1.68943 -1.36993,-3.40093 z m 0.0195,-18.0316 c 0.31561,-0.4817 0.0873,-1.08947 -0.40921,-1.08947 -0.16863,0 -0.34566,-0.14931 -0.39338,-0.3318 -0.10184,-0.38945 -0.81723,-0.45705 -1.14326,-0.10804 -0.11495,0.12306 -0.33313,0.1913 -0.48483,0.15162 -0.1517,-0.0396 -0.37787,0.0699 -0.5026,0.2434 -0.12472,0.17354 -0.35912,0.36491 -0.52086,0.42526 -0.39765,0.14837 -0.53464,0.56488 -0.28481,0.86592 0.15589,0.18783 0.59503,0.24673 1.83963,0.24673 1.54876,0 1.64877,-0.0212 1.89932,-0.40362 z m 3.80062,-5.05958 c 0.12269,-0.19851 -0.1894,-0.3952 -0.41037,-0.25864 -0.18554,0.11467 -0.0637,0.41308 0.1686,0.41308 0.0805,0 0.18927,-0.0695 0.24177,-0.15444 z m 0.35403,-0.55196 c 0.0529,-0.0529 -0.0595,-0.17955 -0.24978,-0.28139 -0.35459,-0.18977 -1.10229,0.0401 -0.94713,0.29107 0.0849,0.13732 1.05777,0.12946 1.19691,-0.01 z m -1.17644,-0.4549 c 0.14176,-0.22938 0.96932,-0.20855 1.2083,0.0304 0.10797,0.10797 0.2491,0.14352 0.31363,0.079 0.21998,-0.21999 -0.42211,-0.65821 -0.94277,-0.6434 -0.51891,0.0148 -0.99391,0.27966 -0.99391,0.5543 0,0.19844 0.28828,0.18432 0.41475,-0.0203 z m 0.58064,-0.73493 c 0.4106,0 0.8772,0.0613 1.03687,0.13637 0.18512,0.0869 0.29033,0.0688 0.29033,-0.05 0,-0.10248 -0.26438,-0.3124 -0.58751,-0.46649 -0.52804,-0.25181 -0.65694,-0.25574 -1.2736,-0.0388 -0.37735,0.13275 -0.7204,0.34658 -0.76232,0.47517 -0.0575,0.17625 0.001,0.1981 0.23673,0.0888 0.17213,-0.0798 0.64891,-0.14505 1.0595,-0.14505 z m 12.42718,-7.53855 c 0.0292,-1.21139 0.006,-1.31248 -0.32678,-1.3994 -0.25443,-0.0665 -0.38065,-0.008 -0.43555,0.20194 -0.0553,0.21127 -0.19204,0.2737 -0.47936,0.21878 -0.31391,-0.06 -0.40205,-0.006 -0.40205,0.24554 0,0.26225 -0.0908,0.30908 -0.48667,0.25099 -0.42807,-0.0628 -0.4756,-0.0291 -0.39476,0.28004 0.069,0.26392 0.0302,0.32782 -0.15553,0.25652 -0.31885,-0.12235 -0.80215,0.3576 -0.68018,0.67547 0.0726,0.18932 0.42234,0.24405 1.5592,0.24405 0.80605,0 1.51169,0.0746 1.56808,0.1659 0.18063,0.29226 0.20155,0.19018 0.2336,-1.13983 z m -20.55623,1.06272 c 0,-0.0424 -0.16796,-0.15851 -0.37326,-0.258 -0.35845,-0.17371 -0.36049,-0.17064 -0.0513,0.0771 0.33848,0.27117 0.42452,0.30783 0.42452,0.18089 z m 1.41015,-3.09507 v -2.21954 l -1.36867,-0.0482 -1.36866,-0.0482 v 2.30713 2.30713 l 1.36866,-0.0393 1.36867,-0.0393 z m -2.40554,-0.15372 v -1.66691 l 1.03687,0.0494 1.03687,0.0494 0.0232,1.61752 0.0232,1.61751 h -1.06003 -1.06003 z m 20.80293,0.10538 c -0.0529,-0.13779 0.0348,-0.26657 0.21258,-0.31256 0.25942,-0.0671 0.26255,-0.081 0.0219,-0.0975 -0.32457,-0.0223 -0.53223,0.23711 -0.38306,0.47846 0.15237,0.24655 0.2518,0.20073 0.14851,-0.0684 z m -16.70803,-1.12396 c -0.053,-0.13235 -0.0923,-0.093 -0.10023,0.10022 -0.007,0.17489 0.0321,0.27288 0.0871,0.21775 0.0551,-0.0551 0.061,-0.19821 0.013,-0.31797 z m -2.24942,-1.67212 c -0.16385,-0.16263 -0.18291,-0.14358 -0.0929,0.0929 0.0623,0.16361 0.15506,0.25568 0.20614,0.2046 0.0511,-0.051 1e-4,-0.18494 -0.11327,-0.29747 z m 12.42183,-2.18561 c 0,-0.22272 0.0747,-0.45109 0.1659,-0.50749 0.0913,-0.0564 0.16591,-0.28035 0.16591,-0.4977 0,-0.21733 -0.0747,-0.4413 -0.16591,-0.49769 -0.0912,-0.0564 -0.1659,-0.28476 -0.1659,-0.50749 v -0.40496 h -2.07373 -2.07374 v 1.41014 1.41014 h 2.07374 2.07373 z m -3.81567,-1.00519 c 0,-0.66148 0.0624,-0.91244 0.22702,-0.91244 0.16204,0 0.23305,0.26121 0.24807,0.91244 0.0163,0.70856 -0.0345,0.91245 -0.22703,0.91245 -0.19008,0 -0.24806,-0.21327 -0.24806,-0.91245 z m 0.6636,0 c 0,-0.70046 0.0578,-0.91244 0.24884,-0.91244 0.19104,0 0.24885,0.21198 0.24885,0.91244 0,0.70046 -0.0578,0.91245 -0.24885,0.91245 -0.19104,0 -0.24884,-0.21199 -0.24884,-0.91245 z m 0.66359,0 c 0,-0.70046 0.0578,-0.91244 0.24884,-0.91244 0.19105,0 0.24885,0.21198 0.24885,0.91244 0,0.70046 -0.0578,0.91245 -0.24885,0.91245 -0.19103,0 -0.24884,-0.21199 -0.24884,-0.91245 z m 0.6636,0 c 0,-0.70046 0.0578,-0.91244 0.24884,-0.91244 0.19104,0 0.24885,0.21198 0.24885,0.91244 0,0.70046 -0.0578,0.91245 -0.24885,0.91245 -0.19104,0 -0.24884,-0.21199 -0.24884,-0.91245 z"
       id="path23082" />
  </g>
</svg>
